<svg fill="none" height="240" viewBox="0 0 240 240" width="240" xmlns="http://www.w3.org/2000/svg" xmlns:xlink="http://www.w3.org/1999/xlink"><clipPath id="a"><rect height="159" rx="9.63636" width="201.882" x="19" y="41"/></clipPath><g clip-path="url(#a)"><rect fill="#1d1e20" height="159" rx="9.63636" width="201.882" x="19" y="41"/><path d="m19 40.803h202v22.1636h-202z" fill="#3d3f41"/><circle cx="32.685" cy="51.9925" fill="#e86c63" r="3.8673"/><circle cx="44.2869" cy="51.9925" fill="#f2be59" r="3.8673"/><circle cx="55.8888" cy="51.9925" fill="#6dc95d" r="3.8673"/><rect fill="#5d5d5d" height="4.38874" rx="2.14631" width="7.31456" x="30.7033" y="69.5269"/><rect fill="#5d5d5d" height="4.38874" rx="2.14631" width="7.31456" x="30.7033" y="81.23"/><rect fill="#5d5d5d" height="4.38874" rx="2.14631" width="7.31456" x="30.7033" y="92.9333"/><rect fill="#5d5d5d" height="4.38874" rx="2.14631" width="7.31456" x="30.7033" y="104.637"/><rect fill="#5d5d5d" height="4.38874" rx="2.14631" width="7.31456" x="30.7033" y="116.34"/><rect fill="#5d5d5d" height="4.38874" rx="2.14631" width="7.31456" x="30.7033" y="128.043"/><rect fill="#5d5d5d" height="4.38874" rx="2.14631" width="7.31456" x="30.7033" y="139.747"/><rect fill="#5d5d5d" height="4.38874" rx="2.14631" width="7.31456" x="30.7033" y="151.45"/><rect fill="#5d5d5d" height="4.38874" rx="2.14631" width="7.31456" x="30.7033" y="163.153"/><rect fill="#5d5d5d" height="4.38874" rx="2.14631" width="13.1662" x="24.8517" y="174.856"/><rect fill="#5d5d5d" height="4.38874" rx="2.14631" width="13.1662" x="24.8517" y="186.56"/><rect fill="#f97583" height="4.38874" rx="2.14631" width="16.092" x="42.4066" y="69.5269"/><rect fill="#f97583" height="4.38874" rx="2.14631" width="11.7033" x="118.478" y="69.5269"/><rect fill="#f97583" height="4.38874" rx="2.14631" width="11.7033" x="141.153" y="81.23"/><rect fill="#e1e4e8" height="4.38874" rx="2.14631" width="5.12019" x="175.897" y="69.5269"/><rect fill="#9ecbff" height="4.38874" rx="2.14631" width="42.0587" x="132.01" y="69.5269"/><g fill="#e1e4e8"><rect height="4.38874" rx="2.14631" width="5.85165" x="60.693" y="69.5269"/><rect height="4.38874" rx="2.14631" width="5.85165" x="111.163" y="69.5269"/><rect height="2.92582" rx="1.46291" width="10.9718" x="68.739" y="70.2583"/><rect height="2.92582" rx="1.46291" width="4.75446" x="81.1738" y="70.2583"/><rect height="3.65728" rx="1.82864" width="22.6751" x="87.3911" y="69.8926"/><rect height="4.38874" rx="2.14631" width="5.85165" x="60.693" y="81.23"/><rect height="4.38874" rx="2.14631" width="5.85165" x="50.4526" y="151.45"/><rect height="4.38874" rx="2.14631" width="5.85165" x="48.2582" y="163.153"/><rect height="4.38874" rx="2.14631" width="6.5831" x="92.1456" y="104.637"/><rect height="4.38874" rx="2.14631" width="6.5831" x="92.1456" y="174.856"/><rect height="4.38874" rx="2.14631" width="4.38874" x="72.0305" y="116.34"/><rect height="4.38874" rx="2.14631" width="4.38874" x="72.0305" y="186.56"/><rect height="4.38874" rx="2.14631" width="14.9948" x="80.4423" y="128.043"/><rect height="4.38874" rx="2.14631" width="14.9948" x="76.785" y="139.747"/><rect height="4.38874" rx="2.14631" width="11.7033" x="122.867" y="128.043"/><rect height="4.38874" rx="2.14631" width="11.7033" x="114.089" y="139.747"/><rect height="4.38874" rx="2.14631" width="7.31456" x="186.503" y="128.043"/><rect height="4.38874" rx="2.14631" width="7.31456" x="178.457" y="139.747"/></g><rect fill="#9ecbff" height="4.38874" rx="2.14631" width="23.0409" x="97.9972" y="128.043"/><rect fill="#9ecbff" height="4.38874" rx="2.14631" width="16.8235" x="94.34" y="139.747"/><rect fill="#9ecbff" height="4.38874" rx="2.14631" width="46.8132" x="137.13" y="128.043"/><rect fill="#9ecbff" height="4.38874" rx="2.14631" width="46.8132" x="128.718" y="139.747"/><g fill="#e1e4e8"><rect height="2.92582" rx="1.46291" width="4.75446" x="126.524" y="105.368"/><rect height="2.92582" rx="1.46291" width="4.75446" x="126.524" y="175.588"/><rect height="4.38874" rx="2.14631" width="4.75446" x="133.473" y="104.637"/><rect height="4.38874" rx="2.14631" width="4.75446" x="133.473" y="174.856"/><rect height="4.38874" rx="2.14631" width="5.85165" x="133.473" y="81.23"/><rect height="2.92582" rx="1.46291" width="17.9207" x="68.739" y="81.9614"/><rect height="2.92582" rx="1.46291" width="9.87465" x="121.404" y="81.9614"/><rect height="2.92582" rx="1.46291" width="3.65728" x="116.284" y="81.9614"/><rect height="2.92582" rx="1.46291" width="6.5831" x="88.854" y="81.9614"/><rect height="2.92582" rx="1.46291" width="17.1892" x="97.6315" y="81.9614"/><rect height="4.38874" rx="2.14631" width="5.12019" x="198.572" y="81.23"/><rect height="4.38874" rx="2.14631" width="5.12019" x="152.856" y="92.9333"/></g><rect fill="#9ecbff" height="4.38874" rx="2.14631" width="42.0587" x="154.685" y="81.23"/><rect fill="#f97583" height="4.38874" rx="2.14631" width="16.092" x="42.4066" y="81.23"/><rect fill="#f97583" height="4.38874" rx="2.14631" width="12.069" x="42.4066" y="92.9333"/><rect fill="#f97583" height="4.38874" rx="2.14631" width="16.092" x="47.8925" y="104.637"/><rect fill="#f97583" height="4.38874" rx="2.14631" width="16.092" x="47.8925" y="174.856"/><rect fill="#f97583" height="4.38874" rx="2.14631" width="16.092" x="53.3784" y="116.34"/><rect fill="#f97583" height="4.38874" rx="2.14631" width="16.092" x="53.3784" y="186.56"/><rect fill="#b392f0" height="4.38874" rx="2.14631" width="23.0409" x="58.4986" y="92.9333"/><rect fill="#f97583" height="4.38874" rx="2.14631" width="17.9207" x="84.831" y="92.9333"/><rect fill="#b392f0" height="4.38874" rx="2.14631" width="23.0409" x="66.9104" y="104.637"/><rect fill="#b392f0" height="4.38874" rx="2.14631" width="23.0409" x="66.9104" y="174.856"/><rect fill="#b392f0" height="4.38874" rx="2.14631" width="21.5779" x="57.0357" y="128.043"/><rect fill="#b392f0" height="4.38874" rx="2.14631" width="17.9207" x="57.0357" y="139.747"/><rect fill="#b392f0" height="4.38874" rx="2.14631" width="23.0409" x="100.923" y="104.637"/><rect fill="#b392f0" height="4.38874" rx="2.14631" width="23.0409" x="100.923" y="174.856"/><rect fill="#b392f0" height="4.38874" rx="2.14631" width="44.9845" x="105.678" y="92.9333"/></g></svg>