<svg width="240" height="240" viewBox="0 0 240 240" fill="none" xmlns="http://www.w3.org/2000/svg">
    <pattern id="pattern-dotted" x="0" y="0" width="7" height="7" patternUnits="userSpaceOnUse" patternContentUnits="userSpaceOnUse">
        <circle cx="1" cy="1" r="0.9" fill="#EBEBEB"/>
    </pattern>
    <g filter="url(#filter0_d_316_7848)">
<g clip-path="url(#clip0_316_7848)">
<rect x="20.4643" y="41.5254" width="200" height="157.518" rx="9.54654" fill="white"/>
<rect x="0" y="0" width="100%" height="100%" fill="url(#pattern-dotted)" />
<g filter="url(#filter1_d_316_7848)">
<rect x="20.4643" y="41.3303" width="200" height="21.957" fill="#3D3F41"/>
</g>
<circle cx="34.0217" cy="52.4155" r="3.83125" fill="#E86C63"/>
<circle cx="45.5157" cy="52.4155" r="3.83125" fill="#F2BE59"/>
<circle cx="57.0093" cy="52.4155" r="3.83125" fill="#6DC95D"/>
<rect x="34.75" y="73.0869" width="63.7874" height="40.5316" rx="4.98339" stroke="#C1C1C1" stroke-width="0.664452"/>
<rect x="157.009" y="73.0869" width="47.8405" height="40.5316" rx="4.98339" stroke="#C1C1C1" stroke-width="0.664452"/>
<rect x="34.75" y="124.914" width="170.764" height="61.794" rx="4.98339" stroke="#C1C1C1" stroke-width="0.664452"/>
<g clip-path="url(#clip1_316_7848)">
<path d="M51.6935 96.8409C51.6935 96.7087 51.746 96.5819 51.8395 96.4885C51.933 96.395 52.0597 96.3425 52.1919 96.3425H53.853C53.9852 96.3425 54.1119 96.395 54.2054 96.4885C54.2988 96.5819 54.3514 96.7087 54.3514 96.8409C54.3514 96.973 54.2988 97.0998 54.2054 97.1932C54.1119 97.2867 53.9852 97.3392 53.853 97.3392H52.1919C52.0597 97.3392 51.933 97.2867 51.8395 97.1932C51.746 97.0998 51.6935 96.973 51.6935 96.8409Z" fill="#666666"/>
<path fill-rule="evenodd" clip-rule="evenodd" d="M49.0358 88.7014C49.0358 88.1727 49.2458 87.6657 49.6196 87.2918C49.9934 86.918 50.5005 86.708 51.0291 86.708H55.0158C55.5445 86.708 56.0515 86.918 56.4253 87.2918C56.7992 87.6657 57.0092 88.1727 57.0092 88.7014V96.6748C57.0092 97.2035 56.7992 97.7105 56.4253 98.0843C56.0515 98.4581 55.5445 98.6681 55.0158 98.6681H51.0291C50.5005 98.6681 49.9934 98.4581 49.6196 98.0843C49.2458 97.7105 49.0358 97.2035 49.0358 96.6748V88.7014ZM51.6936 87.7047V88.203C51.6936 88.4781 51.9168 88.7014 52.1919 88.7014H53.853C53.9852 88.7014 54.112 88.6489 54.2054 88.5554C54.2989 88.4619 54.3514 88.3352 54.3514 88.203V87.7047H55.0158C55.2802 87.7047 55.5337 87.8097 55.7206 87.9966C55.9075 88.1835 56.0125 88.437 56.0125 88.7014V96.6748C56.0125 96.9391 55.9075 97.1926 55.7206 97.3795C55.5337 97.5665 55.2802 97.6715 55.0158 97.6715H51.0291C50.7648 97.6715 50.5113 97.5665 50.3244 97.3795C50.1375 97.1926 50.0324 96.9391 50.0324 96.6748V88.7014C50.0324 88.437 50.1375 88.1835 50.3244 87.9966C50.5113 87.8097 50.7648 87.7047 51.0291 87.7047H51.6936Z" fill="#666666"/>
</g>
<g clip-path="url(#clip2_316_7848)">
<path d="M76.7102 89.8973C77.0175 89.8973 77.2666 89.6668 77.2666 89.3824C77.2666 89.098 77.0175 88.8674 76.7102 88.8674C76.4028 88.8674 76.1537 89.098 76.1537 89.3824C76.1537 89.6668 76.4028 89.8973 76.7102 89.8973Z" fill="#666666"/>
<path d="M78.8446 89.9057C78.9196 89.9126 78.9952 89.9038 79.0666 89.8798C79.1379 89.8558 79.2035 89.8172 79.259 89.7663C79.3145 89.7155 79.3588 89.6536 79.389 89.5846C79.4192 89.5156 79.4346 89.4411 79.4343 89.3658C79.4343 89.2138 79.3739 89.0681 79.2665 88.9606C79.159 88.8531 79.0132 88.7927 78.8612 88.7927C78.7092 88.7927 78.5635 88.8531 78.456 88.9606C78.3485 89.0681 78.2881 89.2138 78.2881 89.3658C78.2881 89.4381 78.3026 89.5097 78.3308 89.5763C78.3589 89.6429 78.4002 89.7032 78.4521 89.7536C78.504 89.8039 78.5655 89.8433 78.6329 89.8695C78.7004 89.8956 78.7723 89.9079 78.8446 89.9057V89.9057Z" fill="#666666"/>
<path d="M80.9876 89.9059C81.2949 89.9059 81.544 89.6716 81.544 89.3826C81.544 89.0936 81.2949 88.8594 80.9876 88.8594C80.6802 88.8594 80.4311 89.0936 80.4311 89.3826C80.4311 89.6716 80.6802 89.9059 80.9876 89.9059Z" fill="#666666"/>
<path d="M85.456 87.2896H75.074C74.7986 87.2896 74.5346 87.3989 74.3399 87.5936C74.1451 87.7883 74.0358 88.0524 74.0358 88.3278V97.0487C74.0358 97.324 74.1451 97.5881 74.3399 97.7828C74.5346 97.9775 74.7986 98.0869 75.074 98.0869H85.456C85.7314 98.0869 85.9955 97.9775 86.1902 97.7828C86.3849 97.5881 86.4942 97.324 86.4942 97.0487V88.3278C86.4942 88.0524 86.3849 87.7883 86.1902 87.5936C85.9955 87.3989 85.7314 87.2896 85.456 87.2896ZM75.074 88.3278H85.456V90.4042H75.074V88.3278ZM75.074 97.0487V91.4424H85.456V97.0487H75.074Z" fill="#666666"/>
</g>
<rect x="39.7334" y="76.0769" width="17.2758" height="4.65116" rx="2.32558" fill="#D9D9D9"/>
<rect x="39.7334" y="130.562" width="17.2758" height="4.65116" rx="2.32558" fill="#D9D9D9"/>
<rect x="161.993" y="76.0769" width="17.2758" height="4.65116" rx="2.32558" fill="#D9D9D9"/>
<rect x="44.3846" y="103.319" width="17.2758" height="3.32226" rx="1.66113" fill="#D9D9D9"/>
<rect x="71.6271" y="103.319" width="17.2758" height="3.32226" rx="1.66113" fill="#D9D9D9"/>
<rect x="69.6337" y="162.456" width="17.2758" height="3.32226" rx="1.66113" fill="#D9D9D9"/>
<rect x="95.5474" y="162.456" width="17.2758" height="3.32226" rx="1.66113" fill="#D9D9D9"/>
<rect x="130.099" y="162.456" width="17.2758" height="3.32226" rx="1.66113" fill="#D9D9D9"/>
<rect x="171.959" y="177.074" width="17.2758" height="3.32226" rx="1.66113" fill="#D9D9D9"/>
<rect x="171.959" y="147.173" width="17.2758" height="3.32226" rx="1.66113" fill="#D9D9D9"/>
<rect x="171.959" y="103.319" width="17.2758" height="3.32226" rx="1.66113" fill="#D9D9D9"/>
<path d="M167.973 93.0205C168.156 93.0205 168.305 92.8717 168.305 92.6882C168.305 92.5047 168.156 92.356 167.973 92.356L167.973 93.0205ZM91.9902 92.4533C91.8604 92.583 91.8604 92.7934 91.9902 92.9231L94.1044 95.0374C94.2342 95.1672 94.4445 95.1672 94.5743 95.0374C94.704 94.9077 94.704 94.6973 94.5743 94.5676L92.6949 92.6882L94.5743 90.8089C94.704 90.6791 94.704 90.4688 94.5743 90.339C94.4445 90.2093 94.2342 90.2093 94.1044 90.339L91.9902 92.4533ZM167.973 92.356L92.2251 92.356L92.2251 93.0205L167.973 93.0205L167.973 92.356Z" fill="#666666"/>
<path d="M168.208 98.9031C168.337 98.7734 168.337 98.563 168.208 98.4333L166.093 96.319C165.963 96.1893 165.753 96.1893 165.623 96.319C165.494 96.4488 165.494 96.6591 165.623 96.7889L167.503 98.6682L165.623 100.548C165.494 100.677 165.494 100.888 165.623 101.017C165.753 101.147 165.963 101.147 166.093 101.017L168.208 98.9031ZM92.2251 98.336C92.0416 98.336 91.8928 98.4847 91.8928 98.6682C91.8928 98.8517 92.0416 99.0004 92.2251 99.0004L92.2251 98.336ZM167.973 98.336L92.2251 98.336L92.2251 99.0004L167.973 99.0004L167.973 98.336Z" fill="#666666"/>
<path d="M128.34 152.059C128.47 151.93 128.47 151.719 128.34 151.59L126.226 149.475C126.096 149.346 125.886 149.346 125.756 149.475C125.627 149.605 125.627 149.815 125.756 149.945L127.636 151.824L125.756 153.704C125.627 153.834 125.627 154.044 125.756 154.174C125.886 154.303 126.096 154.303 126.226 154.174L128.34 152.059ZM114.152 151.492C113.968 151.492 113.82 151.641 113.82 151.824C113.82 152.008 113.968 152.157 114.152 152.157V151.492ZM128.105 151.492H114.152V152.157H128.105V151.492Z" fill="#666666"/>
<path d="M78.0367 142.093C78.1664 142.222 78.3768 142.222 78.5065 142.093L80.6208 139.978C80.7505 139.849 80.7505 139.638 80.6208 139.508C80.4911 139.379 80.2807 139.379 80.151 139.508L78.2716 141.388L76.3923 139.508C76.2625 139.379 76.0522 139.379 75.9224 139.508C75.7927 139.638 75.7927 139.849 75.9224 139.978L78.0367 142.093ZM78.6038 113.951C78.6038 113.767 78.4551 113.618 78.2716 113.618C78.0881 113.618 77.9394 113.767 77.9394 113.951L78.6038 113.951ZM78.6038 141.858L78.6038 113.951L77.9394 113.951L77.9394 141.858L78.6038 141.858Z" fill="#666666"/>
<path d="M180.362 130.797C180.492 130.927 180.702 130.927 180.832 130.797L182.946 128.683C183.076 128.553 183.076 128.343 182.946 128.213C182.817 128.083 182.606 128.083 182.477 128.213L180.597 130.092L178.718 128.213C178.588 128.083 178.378 128.083 178.248 128.213C178.118 128.343 178.118 128.553 178.248 128.683L180.362 130.797ZM180.929 109.3C180.929 109.116 180.781 108.967 180.597 108.967C180.414 108.967 180.265 109.116 180.265 109.3L180.929 109.3ZM180.929 130.562L180.929 109.3L180.265 109.3L180.265 130.562L180.929 130.562Z" fill="#666666"/>
<path d="M103.95 142.093C104.08 142.222 104.29 142.222 104.42 142.093L106.534 139.978C106.664 139.849 106.664 139.638 106.534 139.508C106.405 139.379 106.194 139.379 106.065 139.508L104.185 141.388L102.306 139.508C102.176 139.379 101.966 139.379 101.836 139.508C101.706 139.638 101.706 139.849 101.836 139.978L103.95 142.093ZM104.185 119.931L104.517 119.931C104.517 119.747 104.369 119.599 104.185 119.599L104.185 119.931ZM82.9228 119.931L82.5906 119.931C82.5906 120.114 82.7393 120.263 82.9228 120.263L82.9228 119.931ZM83.255 113.618C83.255 113.435 83.1063 113.286 82.9228 113.286C82.7393 113.286 82.5906 113.435 82.5906 113.618L83.255 113.618ZM104.517 141.858L104.517 119.931L103.853 119.931L103.853 141.858L104.517 141.858ZM104.185 119.599L82.9228 119.599L82.9228 120.263L104.185 120.263L104.185 119.599ZM83.255 119.931L83.255 113.618L82.5906 113.618L82.5906 119.931L83.255 119.931Z" fill="#666666"/>
<circle cx="125.448" cy="84.0503" r="3.32226" fill="#D9D9D9"/>
<circle cx="125.448" cy="104.648" r="3.32226" fill="#D9D9D9"/>
<circle cx="110.165" cy="132.555" r="3.32226" fill="#D9D9D9"/>
<circle cx="154.684" cy="131.226" r="3.32226" fill="#D9D9D9"/>
<circle cx="154.684" cy="177.074" r="3.32226" fill="#D9D9D9"/>
<circle cx="120.797" cy="145.18" r="3.32226" fill="#D9D9D9"/>
<circle cx="186.577" cy="119.266" r="3.32226" fill="#D9D9D9"/>
<circle cx="71.6271" cy="132.555" r="3.32226" fill="#D9D9D9"/>
<g clip-path="url(#clip3_316_7848)">
<path d="M108.049 153.075C107.881 153.075 107.718 153.097 107.561 153.134L107.546 153.111L105.595 150.03C106.027 149.639 106.301 149.074 106.301 148.444C106.301 147.267 105.354 146.313 104.185 146.313C103.017 146.313 102.069 147.267 102.069 148.444C102.069 149.074 102.343 149.639 102.776 150.03L100.825 153.111L100.81 153.134C100.653 153.097 100.49 153.075 100.321 153.075C99.1526 153.075 98.2052 154.028 98.2052 155.205C98.2052 156.382 99.1526 157.335 100.321 157.335C101.49 157.335 102.437 156.382 102.437 155.205C102.437 154.399 101.992 153.698 101.336 153.336L103.232 150.344C103.519 150.49 103.842 150.574 104.185 150.574C104.529 150.574 104.852 150.49 105.139 150.344L107.034 153.336C106.378 153.698 105.933 154.399 105.933 155.205C105.933 156.382 106.881 157.335 108.049 157.335C109.218 157.335 110.165 156.382 110.165 155.205C110.165 154.028 109.218 153.075 108.049 153.075V153.075ZM100.316 156.211C99.7711 156.211 99.3295 155.769 99.3295 155.225C99.3295 154.68 99.7711 154.238 100.316 154.238C100.861 154.238 101.302 154.68 101.302 155.225C101.302 155.769 100.861 156.211 100.316 156.211V156.211Z" fill="#666666"/>
</g>
<path d="M175.946 166.775C175.946 166.983 176.252 167.345 176.963 167.7C177.882 168.16 179.187 168.436 180.597 168.436C182.008 168.436 183.312 168.16 184.232 167.7C184.942 167.345 185.248 166.983 185.248 166.775V165.332C184.152 166.01 182.476 166.442 180.597 166.442C178.719 166.442 177.042 166.009 175.946 165.332V166.775ZM185.248 168.654C184.152 169.332 182.476 169.765 180.597 169.765C178.719 169.765 177.042 169.332 175.946 168.654V170.097C175.946 170.305 176.252 170.667 176.963 171.023C177.882 171.482 179.187 171.758 180.597 171.758C182.008 171.758 183.312 171.482 184.232 171.023C184.942 170.667 185.248 170.305 185.248 170.097V168.654ZM174.617 170.097V163.452C174.617 161.801 177.295 160.462 180.597 160.462C183.9 160.462 186.577 161.801 186.577 163.452V170.097C186.577 171.748 183.9 173.087 180.597 173.087C177.295 173.087 174.617 171.748 174.617 170.097ZM180.597 165.114C182.008 165.114 183.312 164.838 184.232 164.378C184.942 164.023 185.248 163.66 185.248 163.452C185.248 163.244 184.942 162.882 184.232 162.527C183.312 162.067 182.008 161.791 180.597 161.791C179.187 161.791 177.882 162.067 176.963 162.527C176.252 162.882 175.946 163.244 175.946 163.452C175.946 163.66 176.252 164.023 176.963 164.378C177.882 164.838 179.187 165.114 180.597 165.114Z" fill="#666666"/>
<path d="M139.729 158.668L139.493 157.785C140.381 157.546 141.194 157.088 141.859 156.453C142.523 155.818 143.017 155.026 143.296 154.15C143.574 153.274 143.628 152.342 143.452 151.44C143.276 150.537 142.876 149.694 142.289 148.987L142.992 148.402C143.677 149.227 144.144 150.211 144.35 151.264C144.555 152.317 144.493 153.405 144.168 154.427C143.843 155.449 143.266 156.374 142.49 157.115C141.714 157.856 140.765 158.39 139.729 158.668V158.668Z" fill="#666666"/>
<path d="M135.331 158.427H134.418V156.682L134.785 156.609C135.451 156.475 136.245 155.97 136.245 154.316V153.685L134.418 152.771V151.75L136.245 150.836V150.662C136.245 148.164 138.038 146.55 140.813 146.55H141.727V148.295L141.359 148.368C140.693 148.502 139.9 149.008 139.9 150.662V150.836L141.727 151.75V152.771L139.9 153.685V154.316C139.9 156.813 138.107 158.427 135.331 158.427ZM135.331 157.514C137.586 157.514 138.986 156.289 138.986 154.316V153.12L140.705 152.26L138.986 151.401V150.662C138.986 148.57 140.075 147.833 140.813 147.574V147.464C138.559 147.464 137.159 148.689 137.159 150.662V151.401L135.439 152.26L137.159 153.12V154.316C137.159 156.407 136.069 157.145 135.331 157.404V157.514Z" fill="#666666"/>
<path d="M133.153 156.576C132.467 155.751 132 154.766 131.795 153.713C131.589 152.66 131.652 151.572 131.977 150.55C132.302 149.527 132.88 148.603 133.655 147.862C134.431 147.121 135.381 146.587 136.418 146.31L136.653 147.192C135.765 147.43 134.951 147.888 134.286 148.523C133.621 149.158 133.127 149.951 132.848 150.827C132.57 151.703 132.516 152.635 132.692 153.538C132.868 154.44 133.268 155.284 133.855 155.992L133.153 156.576Z" fill="#666666"/>
<path d="M73.5539 155.346V150.296M73.5539 155.346L78.6037 158.292M73.5539 155.346L76.4996 154.083M73.5539 150.296L78.6037 147.35M73.5539 150.296L78.6037 152.821M78.6037 147.35L83.6536 150.296M78.6037 147.35V150.296M83.6536 150.296V155.346M83.6536 150.296L78.6037 152.821M83.6536 155.346L78.6037 158.292M83.6536 155.346L80.7078 154.083M78.6037 158.292V152.821M78.6037 150.296L76.4996 151.559V154.083M78.6037 150.296L80.7078 151.559V154.083M76.4996 154.083L78.6037 155.346L80.7078 154.083" stroke="#666666" stroke-width="0.664452"/>
<path d="M179.933 143.186C179.744 143.186 179.587 143.123 179.46 142.995C179.332 142.868 179.268 142.71 179.268 142.522V138.535L175.414 133.618C175.248 133.397 175.223 133.164 175.34 132.921C175.456 132.677 175.658 132.555 175.946 132.555H185.248C185.536 132.555 185.738 132.677 185.855 132.921C185.971 133.164 185.946 133.397 185.78 133.618L181.926 138.535V142.522C181.926 142.71 181.862 142.868 181.735 142.995C181.608 143.123 181.45 143.186 181.262 143.186H179.933ZM180.597 138.07L183.886 133.884H177.308L180.597 138.07Z" fill="#666666"/>
<path d="M172.624 136.21C172.807 136.21 172.956 136.061 172.956 135.877C172.956 135.694 172.807 135.545 172.624 135.545V136.21ZM139.401 135.877V135.545C139.218 135.545 139.069 135.694 139.069 135.877H139.401ZM139.166 142.092C139.296 142.222 139.506 142.222 139.636 142.092L141.75 139.978C141.88 139.848 141.88 139.638 141.75 139.508C141.621 139.379 141.41 139.379 141.281 139.508L139.401 141.388L137.522 139.508C137.392 139.379 137.182 139.379 137.052 139.508C136.922 139.638 136.922 139.848 137.052 139.978L139.166 142.092ZM172.624 135.545H139.401V136.21H172.624V135.545ZM139.069 135.877V141.858H139.733V135.877H139.069Z" fill="#666666"/>
<path d="M139.733 167.107C139.733 166.923 139.585 166.775 139.401 166.775C139.218 166.775 139.069 166.923 139.069 167.107L139.733 167.107ZM139.401 171.094L139.069 171.094C139.069 171.277 139.218 171.426 139.401 171.426L139.401 171.094ZM170.201 171.328C170.331 171.199 170.331 170.988 170.201 170.859L168.087 168.744C167.957 168.615 167.747 168.615 167.617 168.744C167.487 168.874 167.487 169.084 167.617 169.214L169.496 171.094L167.617 172.973C167.487 173.103 167.487 173.313 167.617 173.443C167.747 173.572 167.957 173.572 168.087 173.443L170.201 171.328ZM139.069 167.107L139.069 171.094L139.733 171.094L139.733 167.107L139.069 167.107ZM139.401 171.426L169.966 171.426L169.966 170.761L139.401 170.761L139.401 171.426Z" fill="#666666"/>
<path d="M185.913 88.7015H175.282V87.3726H185.913M185.913 95.346H175.282V91.3593H185.913M185.913 86.0437H175.282C174.544 86.0437 173.953 86.6351 173.953 87.3726V95.346C173.953 95.6985 174.093 96.0365 174.342 96.2857C174.591 96.5349 174.929 96.6749 175.282 96.6749H185.913C186.265 96.6749 186.603 96.5349 186.853 96.2857C187.102 96.0365 187.242 95.6985 187.242 95.346V87.3726C187.242 87.0202 187.102 86.6821 186.853 86.4329C186.603 86.1837 186.265 86.0437 185.913 86.0437V86.0437Z" fill="#666666"/>
</g>
</g>
<defs>
<filter id="filter0_d_316_7848" x="17.8065" y="40.1965" width="205.316" height="162.833" filterUnits="userSpaceOnUse" color-interpolation-filters="sRGB">
<feFlood flood-opacity="0" result="BackgroundImageFix"/>
<feColorMatrix in="SourceAlpha" type="matrix" values="0 0 0 0 0 0 0 0 0 0 0 0 0 0 0 0 0 0 127 0" result="hardAlpha"/>
<feOffset dy="1.3289"/>
<feGaussianBlur stdDeviation="1.3289"/>
<feComposite in2="hardAlpha" operator="out"/>
<feColorMatrix type="matrix" values="0 0 0 0 0 0 0 0 0 0 0 0 0 0 0 0 0 0 0.12 0"/>
<feBlend mode="normal" in2="BackgroundImageFix" result="effect1_dropShadow_316_7848"/>
<feBlend mode="normal" in="SourceGraphic" in2="effect1_dropShadow_316_7848" result="shape"/>
</filter>
<filter id="filter1_d_316_7848" x="12.8271" y="36.0797" width="215.275" height="37.2315" filterUnits="userSpaceOnUse" color-interpolation-filters="sRGB">
<feFlood flood-opacity="0" result="BackgroundImageFix"/>
<feColorMatrix in="SourceAlpha" type="matrix" values="0 0 0 0 0 0 0 0 0 0 0 0 0 0 0 0 0 0 127 0" result="hardAlpha"/>
<feOffset dy="2.38664"/>
<feGaussianBlur stdDeviation="3.81862"/>
<feComposite in2="hardAlpha" operator="out"/>
<feColorMatrix type="matrix" values="0 0 0 0 0 0 0 0 0 0 0 0 0 0 0 0 0 0 0.08 0"/>
<feBlend mode="normal" in2="BackgroundImageFix" result="effect1_dropShadow_316_7848"/>
<feBlend mode="normal" in="SourceGraphic" in2="effect1_dropShadow_316_7848" result="shape"/>
</filter>
<clipPath id="clip0_316_7848">
<rect x="20.4643" y="41.5254" width="200" height="157.518" rx="9.54654" fill="white"/>
</clipPath>
<clipPath id="clip1_316_7848">
<rect width="13.289" height="13.289" fill="white" transform="translate(46.3779 86.0437)"/>
</clipPath>
<clipPath id="clip2_316_7848">
<rect width="13.289" height="13.289" fill="white" transform="translate(73.6205 86.0437)"/>
</clipPath>
<clipPath id="clip3_316_7848">
<rect width="11.9601" height="11.9601" fill="white" transform="translate(98.2051 145.844)"/>
</clipPath>
</defs>
</svg>
