<svg fill="none" height="240" viewBox="0 0 240 240" width="240" xmlns="http://www.w3.org/2000/svg" xmlns:xlink="http://www.w3.org/1999/xlink"><clipPath id="a"><rect height="157.518" rx="9.54654" width="200" x="20" y="41"/></clipPath><clipPath id="b"><path d="m38.6157 92.5513h45.3461v74.463h-45.3461z"/></clipPath><clipPath id="c"><path d="m99.2362 70.1169h45.3461v74.463h-45.3461z"/></clipPath><clipPath id="d"><path d="m120.239 149.831h45.3461v74.463h-45.3461z"/></clipPath><clipPath id="e"><path d="m159.857 70.1169h45.3461v74.463h-45.3461z"/></clipPath><g clip-path="url(#a)"><rect fill="#e5e5e5" height="157.909" rx="9.54654" width="200" x="20" y="41"/><path d="m20 40.8049h200v21.957h-200z" fill="#3d3f41"/><circle cx="33.5574" cy="51.8901" fill="#e86c63" r="3.83125"/><circle cx="45.0514" cy="51.8901" fill="#f2be59" r="3.83125"/><circle cx="56.545" cy="51.8901" fill="#6dc95d" r="3.83125"/><g clip-path="url(#b)"><path d="m0 0h45.3461v74.463h-45.3461z" fill="#fff" transform="translate(38.6157 92.5513)"/><path d="m38.6157 92.5513h45.3461v74.463h-45.3461z" fill="#eff0f4"/><g fill="#fff"><rect height="3.81862" rx="1.90931" width="28.6396" x="47.2076" y="97.3247"/><rect height="6.20525" rx="1.90931" width="38.6635" x="41.957" y="112.599"/><rect height="6.20525" rx="1.90931" width="38.6635" x="41.957" y="125.487"/><rect height="1.90931" rx=".954654" width="8.59189" x="41.957" y="134.556"/><rect height="1.90931" rx=".954654" width="8.59189" x="41.957" y="119.759"/><rect height="6.20525" rx="1.90931" width="10.9785" x="69.6419" y="134.556"/></g></g><g clip-path="url(#c)"><path d="m0 0h45.3461v74.463h-45.3461z" fill="#fff" transform="translate(99.2362 70.1169)"/><path d="m99.2363 70.1169h45.3461v13.3652h-45.3461z" fill="#eff0f4"/><rect fill="#eff0f4" height="25.2983" rx="3.81862" width="38.6635" x="102.578" y="86.8235"/><rect fill="#fff" height="3.81862" rx="1.90931" width="28.6396" x="107.828" y="74.8901"/><g fill="#eff0f4"><rect height="3.34129" rx="1.67064" width="15.7518" x="112.601" y="115.463"/><rect height="3.34129" rx="1.67064" width="28.6396" x="112.601" y="120.714"/><circle cx="106.874" cy="119.759" r="4.29594"/><rect height="3.34129" rx="1.67064" width="15.7518" x="112.601" y="127.396"/><rect height="3.34129" rx="1.67064" width="28.6396" x="112.601" y="132.647"/><circle cx="106.874" cy="131.692" r="4.29594"/><rect height="3.34129" rx="1.67064" width="15.7518" x="112.601" y="139.329"/><circle cx="106.874" cy="143.625" r="4.29594"/></g></g><path d="m82.6889 130.26c0 .703.5699 1.273 1.2729 1.273.7029 0 1.2728-.57 1.2728-1.273s-.5699-1.273-1.2728-1.273c-.703 0-1.2729.57-1.2729 1.273zm16.9451-21.54c.0983-.088.1066-.239.0188-.337l-1.4323-1.601c-.0879-.098-.2388-.107-.337-.019s-.1066.239-.0187.337l1.2731 1.423-1.4229 1.273c-.0982.088-.1066.239-.0187.337s.2387.107.337.019zm-15.7173 21.774c1.1381.219 2.6629-.249 4.0325-1.838 1.3692-1.589 2.5939-4.304 3.1704-8.627l-.4732-.063c-.5691 4.269-1.7708 6.884-3.0587 8.378-1.2875 1.494-2.6506 1.861-3.5809 1.682zm7.2029-10.465c.1436-1.077.2513-2.072.3465-2.985.0953-.915.1777-1.745.2713-2.499.1878-1.513.4172-2.684.8624-3.569.4371-.869 1.086-1.468 2.1458-1.828 1.0748-.365 2.5772-.487 4.716-.368l.0265-.477c-2.1571-.119-3.7334-.002-4.8961.393-1.1777.401-1.9249 1.084-2.4186 2.065-.4856.965-.7216 2.21-.9097 3.725-.0944.76-.1775 1.597-.2724 2.508-.095.912-.2021 1.902-.3449 2.972z" fill="#4998f7"/><path d="m82.6889 130.306c0-.703.5699-1.273 1.2729-1.273.7029 0 1.2728.57 1.2728 1.273s-.5699 1.273-1.2728 1.273c-.703 0-1.2729-.57-1.2729-1.273zm8.1941 10.263.2386-.006zm28.57 42.267c.093.093.093.244 0 .337l-1.519 1.519c-.093.093-.244.093-.338 0-.093-.093-.093-.244 0-.337l1.35-1.35-1.35-1.35c-.093-.094-.093-.245 0-.338.094-.093.245-.093.338 0zm-35.5363-52.764c2.2751-.438 6.9953 1.749 7.2049 10.491l-.4772.011c-.2059-8.588-4.7759-10.392-6.6376-10.034zm7.2049 10.491c.4766 19.876 5.1828 30.411 10.9064 35.982 5.72 5.567 12.503 6.221 17.256 6.221v.477c-4.794 0-11.734-.658-17.589-6.356-5.8515-5.695-10.5726-16.378-11.0506-36.313z" fill="#4998f7"/><g clip-path="url(#d)"><path d="m0 0h45.3461v74.463h-45.3461z" fill="#fff" transform="translate(120.239 149.831)"/><path d="m120.239 149.831h45.3461v13.3652h-45.3461z" fill="#eff0f4"/><rect fill="#fff" height="3.81862" rx="1.90931" width="28.6396" x="128.83" y="154.604"/><g fill="#eff0f4"><rect height="3.34129" rx="1.67064" width="21.2649" x="123.58" y="167.014"/><rect height="6.20525" rx="1.90931" width="38.6635" x="123.58" y="172.265"/><rect height="3.34129" rx="1.67064" width="21.2649" x="123.58" y="183.243"/><rect height="6.20525" rx="1.90931" width="38.6635" x="123.58" y="188.494"/></g></g><g clip-path="url(#e)"><path d="m0 0h45.3461v74.463h-45.3461z" fill="#fff" transform="translate(159.857 70.1169)"/><path d="m159.857 70.1169h45.3461v17.1838h-45.3461z" fill="#eff0f4"/><rect fill="#fff" height="3.34129" rx="1.67064" width="15.7518" x="173.222" y="74.4128"/><rect fill="#fff" height="3.34129" rx="1.67064" width="28.6396" x="173.222" y="79.6636"/><circle cx="167.494" cy="78.7088" fill="#fff" r="4.29594"/><g fill="#eff0f4"><rect height="3.34129" rx="1.67064" width="21.2649" x="163.198" y="90.6421"/><rect height="3.34129" rx="1.67064" width="38.6635" x="163.198" y="95.8926"/><rect height="3.34129" rx="1.67064" width="38.6635" x="163.198" y="101.143"/><rect height="3.34129" rx="1.67064" width="38.6635" x="163.198" y="106.394"/></g><path d="m159.857 114.27h45.346" stroke="#eff0f4" stroke-width=".477327"/><g fill="#eff0f4"><rect height="3.34129" rx="1.67064" width="21.2649" x="163.198" y="117.85"/><rect height="3.34129" rx="1.67064" width="38.6635" x="163.198" y="123.1"/><rect height="3.34129" rx="1.67064" width="38.6635" x="163.198" y="128.351"/><rect height="3.34129" rx="1.67064" width="38.6635" x="163.198" y="133.601"/></g><path d="m159.857 141.477h45.346" stroke="#eff0f4" stroke-width=".477327"/></g><path d="m143.309 109.735c0 .703.57 1.273 1.273 1.273s1.273-.57 1.273-1.273-.57-1.273-1.273-1.273-1.273.57-1.273 1.273zm16.716.169c.094-.093.094-.244 0-.338l-1.518-1.518c-.094-.094-.245-.094-.338 0-.093.093-.093.244 0 .337l1.35 1.35-1.35 1.35c-.093.093-.093.245 0 .338s.244.093.338 0zm-15.443.07h15.275v-.478h-15.275z" fill="#4998f7"/></g></svg>