<svg fill="none" height="240" viewBox="0 0 240 240" width="240" xmlns="http://www.w3.org/2000/svg" xmlns:xlink="http://www.w3.org/1999/xlink"><clipPath id="a"><rect height="157.518" rx="9.54654" width="200" x="20.4643" y="41.5254"/></clipPath><clipPath id="b"><path d="m46.3779 86.0437h13.289v13.289h-13.289z"/></clipPath><clipPath id="c"><path d="m73.6205 86.0437h13.289v13.289h-13.289z"/></clipPath><clipPath id="d"><path d="m98.2051 145.844h11.9601v11.9601h-11.9601z"/></clipPath><pattern id="e" height="7" patternUnits="userSpaceOnUse" width="7"><circle cx="1" cy="1" fill="#ebebeb" r=".9"/></pattern><g clip-path="url(#a)"><rect fill="#fff" height="157.518" rx="9.54654" width="200" x="20.4643" y="41.5254"/><rect fill="url(#e)" height="100%" width="100%"/><path d="m20.4643 41.3303h200v21.957h-200z" fill="#3d3f41"/><circle cx="34.0217" cy="52.4155" fill="#e86c63" r="3.83125"/><circle cx="45.5157" cy="52.4155" fill="#f2be59" r="3.83125"/><circle cx="57.0093" cy="52.4155" fill="#6dc95d" r="3.83125"/><rect height="40.5316" rx="4.98339" stroke="#c1c1c1" stroke-width=".664452" width="63.7874" x="34.75" y="73.0869"/><rect height="40.5316" rx="4.98339" stroke="#c1c1c1" stroke-width=".664452" width="47.8405" x="157.009" y="73.0869"/><rect height="61.794" rx="4.98339" stroke="#c1c1c1" stroke-width=".664452" width="170.764" x="34.75" y="124.914"/><g clip-path="url(#b)" fill="#666"><path d="m51.6935 96.8409c0-.1322.0525-.259.146-.3524.0935-.0935.2202-.146.3524-.146h1.6611c.1322 0 .2589.0525.3524.146.0934.0934.146.2202.146.3524 0 .1321-.0526.2589-.146.3523-.0935.0935-.2202.146-.3524.146h-1.6611c-.1322 0-.2589-.0525-.3524-.146-.0935-.0934-.146-.2202-.146-.3523z"/><path clip-rule="evenodd" d="m49.0358 88.7014c0-.5287.21-1.0357.5838-1.4096.3738-.3738.8809-.5838 1.4095-.5838h3.9867c.5287 0 1.0357.21 1.4095.5838.3739.3739.5839.8809.5839 1.4096v7.9734c0 .5287-.21 1.0357-.5839 1.4095-.3738.3738-.8808.5838-1.4095.5838h-3.9867c-.5286 0-1.0357-.21-1.4095-.5838s-.5838-.8808-.5838-1.4095zm2.6578-.9967v.4983c0 .2751.2232.4984.4983.4984h1.6611c.1322 0 .259-.0525.3524-.146.0935-.0935.146-.2202.146-.3524v-.4983h.6644c.2644 0 .5179.105.7048.2919s.2919.4404.2919.7048v7.9734c0 .2643-.105.5178-.2919.7047-.1869.187-.4404.292-.7048.292h-3.9867c-.2643 0-.5178-.105-.7047-.292-.1869-.1869-.292-.4404-.292-.7047v-7.9734c0-.2644.1051-.5179.292-.7048s.4404-.2919.7047-.2919z" fill-rule="evenodd"/></g><g clip-path="url(#c)" fill="#666"><path d="m76.7102 89.8973c.3073 0 .5564-.2305.5564-.5149s-.2491-.515-.5564-.515c-.3074 0-.5565.2306-.5565.515s.2491.5149.5565.5149z"/><path d="m78.8446 89.9057c.075.0069.1506-.0019.222-.0259.0713-.024.1369-.0626.1924-.1135.0555-.0508.0998-.1127.13-.1817s.0456-.1435.0453-.2188c0-.152-.0604-.2977-.1678-.4052-.1075-.1075-.2533-.1679-.4053-.1679s-.2977.0604-.4052.1679-.1679.2532-.1679.4052c0 .0723.0145.1439.0427.2105.0281.0666.0694.1269.1213.1773.0519.0503.1134.0897.1808.1159.0675.0261.1394.0384.2117.0362z"/><path d="m80.9876 89.9059c.3073 0 .5564-.2343.5564-.5233s-.2491-.5232-.5564-.5232c-.3074 0-.5565.2342-.5565.5232s.2491.5233.5565.5233z"/><path d="m85.456 87.2896h-10.382c-.2754 0-.5394.1093-.7341.304-.1948.1947-.3041.4588-.3041.7342v8.7209c0 .2753.1093.5394.3041.7341.1947.1947.4587.3041.7341.3041h10.382c.2754 0 .5395-.1094.7342-.3041s.304-.4588.304-.7341v-8.7209c0-.2754-.1093-.5395-.304-.7342s-.4588-.304-.7342-.304zm-10.382 1.0382h10.382v2.0764h-10.382zm0 8.7209v-5.6063h10.382v5.6063z"/></g><g fill="#d9d9d9"><rect height="4.65116" rx="2.32558" width="17.2758" x="39.7334" y="76.0769"/><rect height="4.65116" rx="2.32558" width="17.2758" x="39.7334" y="130.562"/><rect height="4.65116" rx="2.32558" width="17.2758" x="161.993" y="76.0769"/><rect height="3.32226" rx="1.66113" width="17.2758" x="44.3846" y="103.319"/><rect height="3.32226" rx="1.66113" width="17.2758" x="71.6271" y="103.319"/><rect height="3.32226" rx="1.66113" width="17.2758" x="69.6337" y="162.456"/><rect height="3.32226" rx="1.66113" width="17.2758" x="95.5474" y="162.456"/><rect height="3.32226" rx="1.66113" width="17.2758" x="130.099" y="162.456"/><rect height="3.32226" rx="1.66113" width="17.2758" x="171.959" y="177.074"/><rect height="3.32226" rx="1.66113" width="17.2758" x="171.959" y="147.173"/><rect height="3.32226" rx="1.66113" width="17.2758" x="171.959" y="103.319"/></g><path d="m167.973 93.0205c.183 0 .332-.1488.332-.3323s-.149-.3322-.332-.3322zm-75.9828-.5672c-.1298.1297-.1298.3401 0 .4698l2.1142 2.1143c.1298.1298.3401.1298.4699 0 .1297-.1297.1297-.3401 0-.4698l-1.8794-1.8794 1.8794-1.8793c.1297-.1298.1297-.3401 0-.4699-.1298-.1297-.3401-.1297-.4699 0zm75.9828-.0973h-75.7479v.6645h75.7479z" fill="#666"/><path d="m168.208 98.9031c.129-.1297.129-.3401 0-.4698l-2.115-2.1143c-.13-.1297-.34-.1297-.47 0-.129.1298-.129.3401 0 .4699l1.88 1.8793-1.88 1.8798c-.129.129-.129.34 0 .469.13.13.34.13.47 0zm-75.9829-.5671c-.1835 0-.3323.1487-.3323.3322s.1488.3322.3323.3322zm75.7479 0h-75.7479v.6644h75.7479z" fill="#666"/><path d="m128.34 152.059c.13-.129.13-.34 0-.469l-2.114-2.115c-.13-.129-.34-.129-.47 0-.129.13-.129.34 0 .47l1.88 1.879-1.88 1.88c-.129.13-.129.34 0 .47.13.129.34.129.47 0zm-14.188-.567c-.184 0-.332.149-.332.332 0 .184.148.333.332.333zm13.953 0h-13.953v.665h13.953z" fill="#666"/><path d="m78.0367 142.093c.1297.129.3401.129.4698 0l2.1143-2.115c.1297-.129.1297-.34 0-.47-.1297-.129-.3401-.129-.4698 0l-1.8794 1.88-1.8793-1.88c-.1298-.129-.3401-.129-.4699 0-.1297.13-.1297.341 0 .47zm.5671-28.142c0-.184-.1487-.333-.3322-.333s-.3322.149-.3322.333zm0 27.907v-27.907h-.6644v27.907z" fill="#666"/><path d="m180.362 130.797c.13.13.34.13.47 0l2.114-2.114c.13-.13.13-.34 0-.47-.129-.13-.34-.13-.469 0l-1.88 1.879-1.879-1.879c-.13-.13-.34-.13-.47 0s-.13.34 0 .47zm.567-21.497c0-.184-.148-.333-.332-.333-.183 0-.332.149-.332.333zm0 21.262v-21.262h-.664v21.262z" fill="#666"/><path d="m103.95 142.093c.13.129.34.129.47 0l2.114-2.115c.13-.129.13-.34 0-.47-.129-.129-.34-.129-.469 0l-1.88 1.88-1.879-1.88c-.13-.129-.34-.129-.47 0-.13.13-.13.341 0 .47zm.235-22.162h.332c0-.184-.148-.332-.332-.332zm-21.2622 0h-.3322c0 .183.1487.332.3322.332zm.3322-6.313c0-.183-.1487-.332-.3322-.332s-.3322.149-.3322.332zm21.262 28.24v-21.927h-.664v21.927zm-.332-22.259h-21.2622v.664h21.2622zm-20.93.332v-6.313h-.6644v6.313z" fill="#666"/><g fill="#d9d9d9"><circle cx="125.448" cy="84.0503" r="3.32226"/><circle cx="125.448" cy="104.648" r="3.32226"/><circle cx="110.165" cy="132.555" r="3.32226"/><circle cx="154.684" cy="131.226" r="3.32226"/><circle cx="154.684" cy="177.074" r="3.32226"/><circle cx="120.797" cy="145.18" r="3.32226"/><circle cx="186.577" cy="119.266" r="3.32226"/><circle cx="71.6271" cy="132.555" r="3.32226"/></g><g clip-path="url(#d)"><path d="m108.049 153.075c-.168 0-.331.022-.488.059l-.015-.023-1.951-3.081c.432-.391.706-.956.706-1.586 0-1.177-.947-2.131-2.116-2.131-1.168 0-2.116.954-2.116 2.131 0 .63.274 1.195.707 1.586l-1.951 3.081-.015.023c-.157-.037-.32-.059-.489-.059-1.1684 0-2.1158.953-2.1158 2.13s.9474 2.13 2.1158 2.13c1.169 0 2.116-.953 2.116-2.13 0-.806-.445-1.507-1.101-1.869l1.896-2.992c.287.146.61.23.953.23.344 0 .667-.084.954-.23l1.895 2.992c-.656.362-1.101 1.063-1.101 1.869 0 1.177.948 2.13 2.116 2.13 1.169 0 2.116-.953 2.116-2.13s-.947-2.13-2.116-2.13zm-7.733 3.136c-.5449 0-.9865-.442-.9865-.986 0-.545.4416-.987.9865-.987.545 0 .986.442.986.987 0 .544-.441.986-.986.986z" fill="#666"/></g><path d="m175.946 166.775c0 .208.306.57 1.017.925.919.46 2.224.736 3.634.736 1.411 0 2.715-.276 3.635-.736.71-.355 1.016-.717 1.016-.925v-1.443c-1.096.678-2.772 1.11-4.651 1.11-1.878 0-3.555-.433-4.651-1.11zm9.302 1.879c-1.096.678-2.772 1.111-4.651 1.111-1.878 0-3.555-.433-4.651-1.111v1.443c0 .208.306.57 1.017.926.919.459 2.224.735 3.634.735 1.411 0 2.715-.276 3.635-.735.71-.356 1.016-.718 1.016-.926zm-10.631 1.443v-6.645c0-1.651 2.678-2.99 5.98-2.99 3.303 0 5.98 1.339 5.98 2.99v6.645c0 1.651-2.677 2.99-5.98 2.99-3.302 0-5.98-1.339-5.98-2.99zm5.98-4.983c1.411 0 2.715-.276 3.635-.736.71-.355 1.016-.718 1.016-.926s-.306-.57-1.016-.925c-.92-.46-2.224-.736-3.635-.736-1.41 0-2.715.276-3.634.736-.711.355-1.017.717-1.017.925s.306.571 1.017.926c.919.46 2.224.736 3.634.736z" fill="#666"/><path d="m139.729 158.668-.236-.883c.888-.239 1.701-.697 2.366-1.332.664-.635 1.158-1.427 1.437-2.303.278-.876.332-1.808.156-2.71-.176-.903-.576-1.746-1.163-2.453l.703-.585c.685.825 1.152 1.809 1.358 2.862.205 1.053.143 2.141-.182 3.163s-.902 1.947-1.678 2.688-1.725 1.275-2.761 1.553z" fill="#666"/><path d="m135.331 158.427h-.913v-1.745l.367-.073c.666-.134 1.46-.639 1.46-2.293v-.631l-1.827-.914v-1.021l1.827-.914v-.174c0-2.498 1.793-4.112 4.568-4.112h.914v1.745l-.368.073c-.666.134-1.459.64-1.459 2.294v.174l1.827.914v1.021l-1.827.914v.631c0 2.497-1.793 4.111-4.569 4.111zm0-.913c2.255 0 3.655-1.225 3.655-3.198v-1.196l1.719-.86-1.719-.859v-.739c0-2.092 1.089-2.829 1.827-3.088v-.11c-2.254 0-3.654 1.225-3.654 3.198v.739l-1.72.859 1.72.86v1.196c0 2.091-1.09 2.829-1.828 3.088z" fill="#666"/><path d="m133.153 156.576c-.686-.825-1.153-1.81-1.358-2.863-.206-1.053-.143-2.141.182-3.163.325-1.023.903-1.947 1.678-2.688.776-.741 1.726-1.275 2.763-1.552l.235.882c-.888.238-1.702.696-2.367 1.331s-1.159 1.428-1.438 2.304c-.278.876-.332 1.808-.156 2.711.176.902.576 1.746 1.163 2.454z" fill="#666"/><path d="m73.5539 155.346v-5.05m0 5.05 5.0498 2.946m-5.0498-2.946 2.9457-1.263m-2.9457-3.787 5.0498-2.946m-5.0498 2.946 5.0498 2.525m0-5.471 5.0499 2.946m-5.0499-2.946v2.946m5.0499 0v5.05m0-5.05-5.0499 2.525m5.0499 2.525-5.0499 2.946m5.0499-2.946-2.9458-1.263m-2.1041 4.209v-5.471m0-2.525-2.1041 1.263v2.524m2.1041-3.787 2.1041 1.263v2.524m-4.2082 0 2.1041 1.263 2.1041-1.263" stroke="#666" stroke-width=".664452"/><path d="m179.933 143.186c-.189 0-.346-.063-.473-.191-.128-.127-.192-.285-.192-.473v-3.987l-3.854-4.917c-.166-.221-.191-.454-.074-.697.116-.244.318-.366.606-.366h9.302c.288 0 .49.122.607.366.116.243.091.476-.075.697l-3.854 4.917v3.987c0 .188-.064.346-.191.473-.127.128-.285.191-.473.191zm.664-5.116 3.289-4.186h-6.578z" fill="#666"/><path d="m172.624 136.21c.183 0 .332-.149.332-.333 0-.183-.149-.332-.332-.332zm-33.223-.333v-.332c-.183 0-.332.149-.332.332zm-.235 6.215c.13.13.34.13.47 0l2.114-2.114c.13-.13.13-.34 0-.47-.129-.129-.34-.129-.469 0l-1.88 1.88-1.879-1.88c-.13-.129-.34-.129-.47 0-.13.13-.13.34 0 .47zm33.458-6.547h-33.223v.665h33.223zm-33.555.332v5.981h.664v-5.981z" fill="#666"/><path d="m139.733 167.107c0-.184-.148-.332-.332-.332-.183 0-.332.148-.332.332zm-.332 3.987h-.332c0 .183.149.332.332.332zm30.8.234c.13-.129.13-.34 0-.469l-2.114-2.115c-.13-.129-.34-.129-.47 0-.13.13-.13.34 0 .47l1.879 1.88-1.879 1.879c-.13.13-.13.34 0 .47.13.129.34.129.47 0zm-31.132-4.221v3.987h.664v-3.987zm.332 4.319h30.565v-.665h-30.565z" fill="#666"/><path d="m185.913 88.7015h-10.631v-1.3289h10.631m0 7.9734h-10.631v-3.9867h10.631m0-5.3156h-10.631c-.738 0-1.329.5914-1.329 1.3289v7.9734c0 .3525.14.6905.389.9397s.587.3892.94.3892h10.631c.352 0 .69-.14.94-.3892.249-.2492.389-.5872.389-.9397v-7.9734c0-.3524-.14-.6905-.389-.9397-.25-.2492-.588-.3892-.94-.3892z" fill="#666"/></g></svg>