<svg width="240" height="240" viewBox="0 0 240 240" fill="none" xmlns="http://www.w3.org/2000/svg">
<pattern id="pattern-dotted" x="0" y="0" width="4" height="4" patternUnits="userSpaceOnUse" patternContentUnits="userSpaceOnUse">
    <circle cx="0.25" cy="0.25" r="0.5" fill="#EBEBEB"/>
</pattern>
<g filter="url(#filter0_d_307_4289)">
<g clip-path="url(#clip0_307_4289)">
<rect x="5" y="39" width="142.929" height="112.569" rx="6.82237" fill="white"/>
<g filter="url(#filter1_d_307_4289)">
<rect x="5" y="38.8606" width="143" height="15.6914" fill="#3D3F41"/>
</g>
<circle cx="14.6887" cy="46.7827" r="2.73798" fill="#E86C63"/>
<circle cx="22.9028" cy="46.7827" r="2.73798" fill="#F2BE59"/>
<circle cx="31.1166" cy="46.7827" r="2.73798" fill="#6DC95D"/>
<rect x="0" y="54" width="100%" height="100%" fill="url(#pattern-dotted)" />
<rect x="15.2092" y="61.555" width="45.5852" height="28.9656" rx="3.56134" stroke="#C1C1C1" stroke-width="0.474846"/>
<rect x="102.581" y="61.555" width="34.1889" height="28.9656" rx="3.56134" stroke="#C1C1C1" stroke-width="0.474846"/>
<rect x="15.2092" y="98.5931" width="122.035" height="44.1607" rx="3.56134" stroke="#C1C1C1" stroke-width="0.474846"/>
<path d="M27.3177 78.5309C27.3177 78.4365 27.3553 78.3459 27.4221 78.2791C27.4888 78.2123 27.5794 78.1748 27.6739 78.1748H28.861C28.9555 78.1748 29.046 78.2123 29.1128 78.2791C29.1796 78.3459 29.2171 78.4365 29.2171 78.5309C29.2171 78.6254 29.1796 78.716 29.1128 78.7828C29.046 78.8496 28.9555 78.8871 28.861 78.8871H27.6739C27.5794 78.8871 27.4888 78.8496 27.4221 78.7828C27.3553 78.716 27.3177 78.6254 27.3177 78.5309Z" fill="#666666"/>
<path fill-rule="evenodd" clip-rule="evenodd" d="M25.4184 72.7141C25.4184 72.3363 25.5685 71.9739 25.8356 71.7068C26.1028 71.4396 26.4651 71.2896 26.8429 71.2896H29.692C30.0698 71.2896 30.4322 71.4396 30.6993 71.7068C30.9665 71.9739 31.1165 72.3363 31.1165 72.7141V78.4122C31.1165 78.79 30.9665 79.1524 30.6993 79.4195C30.4322 79.6867 30.0698 79.8368 29.692 79.8368H26.8429C26.4651 79.8368 26.1028 79.6867 25.8356 79.4195C25.5685 79.1524 25.4184 78.79 25.4184 78.4122V72.7141ZM27.3178 72.0018V72.358C27.3178 72.5545 27.4773 72.7141 27.6739 72.7141H28.861C28.9555 72.7141 29.0461 72.6766 29.1129 72.6098C29.1796 72.543 29.2172 72.4524 29.2172 72.358V72.0018H29.692C29.8809 72.0018 30.0621 72.0769 30.1957 72.2104C30.3292 72.344 30.4043 72.5252 30.4043 72.7141V78.4122C30.4043 78.6011 30.3292 78.7823 30.1957 78.9159C30.0621 79.0495 29.8809 79.1245 29.692 79.1245H26.8429C26.654 79.1245 26.4729 79.0495 26.3393 78.9159C26.2057 78.7823 26.1307 78.6011 26.1307 78.4122V72.7141C26.1307 72.5252 26.2057 72.344 26.3393 72.2104C26.4729 72.0769 26.654 72.0018 26.8429 72.0018H27.3178Z" fill="#666666"/>
<g clip-path="url(#clip1_307_4289)">
<path d="M45.1957 73.5688C45.4154 73.5688 45.5934 73.404 45.5934 73.2008C45.5934 72.9975 45.4154 72.8328 45.1957 72.8328C44.9761 72.8328 44.798 72.9975 44.798 73.2008C44.798 73.404 44.9761 73.5688 45.1957 73.5688Z" fill="#666666"/>
<path d="M46.7211 73.5747C46.7747 73.5796 46.8287 73.5733 46.8797 73.5562C46.9307 73.539 46.9776 73.5114 47.0172 73.4751C47.0569 73.4387 47.0886 73.3945 47.1102 73.3452C47.1317 73.2959 47.1428 73.2427 47.1425 73.1889C47.1425 73.0802 47.0994 72.9761 47.0226 72.8993C46.9458 72.8224 46.8416 72.7793 46.733 72.7793C46.6244 72.7793 46.5202 72.8224 46.4434 72.8993C46.3666 72.9761 46.3234 73.0802 46.3234 73.1889C46.3234 73.2405 46.3338 73.2917 46.3539 73.3393C46.374 73.3869 46.4035 73.43 46.4406 73.4659C46.4777 73.5019 46.5216 73.5301 46.5698 73.5488C46.618 73.5674 46.6695 73.5763 46.7211 73.5747V73.5747Z" fill="#666666"/>
<path d="M48.2525 73.5748C48.4722 73.5748 48.6502 73.4074 48.6502 73.2008C48.6502 72.9943 48.4722 72.8269 48.2525 72.8269C48.0329 72.8269 47.8549 72.9943 47.8549 73.2008C47.8549 73.4074 48.0329 73.5748 48.2525 73.5748Z" fill="#666666"/>
<path d="M51.4458 71.7051H44.0264C43.8296 71.7051 43.6409 71.7832 43.5017 71.9224C43.3626 72.0615 43.2844 72.2502 43.2844 72.447V78.6794C43.2844 78.8762 43.3626 79.0649 43.5017 79.204C43.6409 79.3432 43.8296 79.4213 44.0264 79.4213H51.4458C51.6426 79.4213 51.8313 79.3432 51.9705 79.204C52.1096 79.0649 52.1878 78.8762 52.1878 78.6794V72.447C52.1878 72.2502 52.1096 72.0615 51.9705 71.9224C51.8313 71.7832 51.6426 71.7051 51.4458 71.7051ZM44.0264 72.447H51.4458V73.9309H44.0264V72.447ZM44.0264 78.6794V74.6729H51.4458V78.6794H44.0264Z" fill="#666666"/>
</g>
<rect x="18.7705" y="63.6919" width="12.346" height="3.32392" rx="1.66196" fill="#D9D9D9"/>
<rect x="18.7705" y="102.629" width="12.346" height="3.32392" rx="1.66196" fill="#D9D9D9"/>
<rect x="106.142" y="63.6919" width="12.346" height="3.32392" rx="1.66196" fill="#D9D9D9"/>
<rect x="22.0944" y="83.1606" width="12.346" height="2.37423" rx="1.18711" fill="#D9D9D9"/>
<rect x="41.5631" y="83.1606" width="12.346" height="2.37423" rx="1.18711" fill="#D9D9D9"/>
<rect x="40.1386" y="125.422" width="12.346" height="2.37423" rx="1.18711" fill="#D9D9D9"/>
<rect x="58.6576" y="125.422" width="12.346" height="2.37423" rx="1.18711" fill="#D9D9D9"/>
<rect x="83.3495" y="125.422" width="12.346" height="2.37423" rx="1.18711" fill="#D9D9D9"/>
<rect x="113.265" y="135.869" width="12.346" height="2.37423" rx="1.18711" fill="#D9D9D9"/>
<rect x="113.265" y="114.5" width="12.346" height="2.37423" rx="1.18711" fill="#D9D9D9"/>
<rect x="113.265" y="83.1606" width="12.346" height="2.37423" rx="1.18711" fill="#D9D9D9"/>
<path d="M110.416 75.8004C110.547 75.8004 110.653 75.6941 110.653 75.563C110.653 75.4319 110.547 75.3256 110.416 75.3256L110.416 75.8004ZM56.1155 75.3951C56.0227 75.4878 56.0227 75.6381 56.1155 75.7309L57.6264 77.2418C57.7191 77.3345 57.8695 77.3345 57.9622 77.2418C58.0549 77.1491 58.0549 76.9988 57.9622 76.9061L56.6191 75.563L57.9622 74.2199C58.0549 74.1272 58.0549 73.9769 57.9622 73.8842C57.8695 73.7914 57.7191 73.7914 57.6264 73.8842L56.1155 75.3951ZM110.416 75.3256L56.2833 75.3256L56.2833 75.8004L110.416 75.8004L110.416 75.3256Z" fill="#666666"/>
<path d="M110.584 80.0046C110.676 79.9118 110.676 79.7615 110.584 79.6688L109.073 78.1578C108.98 78.0651 108.83 78.0651 108.737 78.1578C108.644 78.2506 108.644 78.4009 108.737 78.4936L110.08 79.8367L108.737 81.1797C108.644 81.2725 108.644 81.4228 108.737 81.5155C108.83 81.6082 108.98 81.6082 109.073 81.5155L110.584 80.0046ZM56.2833 79.5992C56.1522 79.5992 56.0459 79.7055 56.0459 79.8367C56.0459 79.9678 56.1522 80.0741 56.2833 80.0741L56.2833 79.5992ZM110.416 79.5992L56.2833 79.5992L56.2833 80.0741L110.416 80.0741L110.416 79.5992Z" fill="#666666"/>
<path d="M82.0929 117.992C82.1856 117.9 82.1856 117.749 82.0929 117.657L80.582 116.146C80.4892 116.053 80.3389 116.053 80.2462 116.146C80.1535 116.238 80.1535 116.389 80.2462 116.481L81.5893 117.824L80.2462 119.168C80.1535 119.26 80.1535 119.411 80.2462 119.503C80.3389 119.596 80.4892 119.596 80.582 119.503L82.0929 117.992ZM71.9533 117.587C71.8221 117.587 71.7158 117.693 71.7158 117.824C71.7158 117.956 71.8221 118.062 71.9533 118.062V117.587ZM81.925 117.587H71.9533V118.062H81.925V117.587Z" fill="#666666"/>
<path d="M46.1437 110.87C46.2364 110.962 46.3867 110.962 46.4795 110.87L47.9904 109.359C48.0831 109.266 48.0831 109.116 47.9904 109.023C47.8977 108.93 47.7474 108.93 47.6547 109.023L46.3116 110.366L44.9685 109.023C44.8758 108.93 44.7255 108.93 44.6328 109.023C44.54 109.116 44.54 109.266 44.6328 109.359L46.1437 110.87ZM46.549 90.7581C46.549 90.627 46.4427 90.5207 46.3116 90.5207C46.1805 90.5207 46.0742 90.627 46.0742 90.7581L46.549 90.7581ZM46.549 110.702L46.549 90.7581L46.0742 90.7581L46.0742 110.702L46.549 110.702Z" fill="#666666"/>
<path d="M119.27 102.797C119.363 102.89 119.513 102.89 119.606 102.797L121.117 101.286C121.209 101.194 121.209 101.043 121.117 100.951C121.024 100.858 120.874 100.858 120.781 100.951L119.438 102.294L118.095 100.951C118.002 100.858 117.852 100.858 117.759 100.951C117.666 101.043 117.666 101.194 117.759 101.286L119.27 102.797ZM119.675 87.4343C119.675 87.3032 119.569 87.1969 119.438 87.1969C119.307 87.1969 119.2 87.3032 119.2 87.4343L119.675 87.4343ZM119.675 102.629L119.675 87.4343L119.2 87.4343L119.2 102.629L119.675 102.629Z" fill="#666666"/>
<path d="M64.6627 110.87C64.7554 110.962 64.9057 110.962 64.9984 110.87L66.5094 109.359C66.6021 109.266 66.6021 109.116 66.5094 109.023C66.4167 108.93 66.2664 108.93 66.1736 109.023L64.8306 110.366L63.4875 109.023C63.3948 108.93 63.2445 108.93 63.1517 109.023C63.059 109.116 63.059 109.266 63.1517 109.359L64.6627 110.87ZM64.8306 95.0317L65.068 95.0317C65.068 94.9006 64.9617 94.7943 64.8306 94.7943L64.8306 95.0317ZM49.6355 95.0317L49.3981 95.0317C49.3981 95.1629 49.5044 95.2692 49.6355 95.2692L49.6355 95.0317ZM49.8729 90.5207C49.8729 90.3896 49.7666 90.2833 49.6355 90.2833C49.5044 90.2833 49.3981 90.3896 49.3981 90.5207L49.8729 90.5207ZM65.068 110.702L65.068 95.0317L64.5931 95.0317L64.5931 110.702L65.068 110.702ZM64.8306 94.7943L49.6355 94.7943L49.6355 95.2692L64.8306 95.2692L64.8306 94.7943ZM49.8729 95.0317L49.8729 90.5207L49.3981 90.5207L49.3981 95.0317L49.8729 95.0317Z" fill="#666666"/>
<circle cx="80.0256" cy="69.3901" r="2.37423" fill="#D9D9D9"/>
<circle cx="80.0256" cy="84.1103" r="2.37423" fill="#D9D9D9"/>
<circle cx="69.1042" cy="104.054" r="2.37423" fill="#D9D9D9"/>
<circle cx="100.919" cy="103.104" r="2.37423" fill="#D9D9D9"/>
<circle cx="100.919" cy="135.869" r="2.37423" fill="#D9D9D9"/>
<circle cx="76.7017" cy="113.076" r="2.37423" fill="#D9D9D9"/>
<circle cx="123.711" cy="94.5568" r="2.37423" fill="#D9D9D9"/>
<circle cx="41.5631" cy="104.054" r="2.37423" fill="#D9D9D9"/>
<g clip-path="url(#clip2_307_4289)">
<path d="M67.592 118.718C67.4716 118.718 67.3552 118.734 67.2429 118.76L67.2323 118.744L65.8377 116.542C66.147 116.263 66.3428 115.859 66.3428 115.408C66.3428 114.568 65.6658 113.886 64.8306 113.886C63.9954 113.886 63.3184 114.568 63.3184 115.408C63.3184 115.859 63.5142 116.263 63.8235 116.542L62.4289 118.744L62.4182 118.76C62.306 118.734 62.1895 118.718 62.0692 118.718C61.234 118.718 60.557 119.4 60.557 120.24C60.557 121.081 61.234 121.763 62.0692 121.763C62.9043 121.763 63.5814 121.081 63.5814 120.24C63.5814 119.664 63.2634 119.163 62.7947 118.905L64.1492 116.766C64.3542 116.871 64.5852 116.931 64.8306 116.931C65.076 116.931 65.307 116.871 65.512 116.766L66.8664 118.905C66.3977 119.163 66.0798 119.664 66.0798 120.24C66.0798 121.081 66.7568 121.763 67.592 121.763C68.4272 121.763 69.1042 121.081 69.1042 120.24C69.1042 119.4 68.4272 118.718 67.592 118.718V118.718ZM62.0653 120.959C61.676 120.959 61.3604 120.644 61.3604 120.255C61.3604 119.865 61.676 119.55 62.0653 119.55C62.4546 119.55 62.7702 119.865 62.7702 120.255C62.7702 120.644 62.4546 120.959 62.0653 120.959V120.959Z" fill="#666666"/>
</g>
<g clip-path="url(#clip3_307_4289)">
<path d="M116.114 128.508C116.114 128.657 116.333 128.916 116.84 129.17C117.498 129.498 118.43 129.695 119.438 129.695C120.446 129.695 121.378 129.498 122.035 129.17C122.543 128.916 122.762 128.657 122.762 128.508V127.477C121.978 127.962 120.78 128.271 119.438 128.271C118.095 128.271 116.897 127.961 116.114 127.477V128.508ZM122.762 129.852C121.978 130.336 120.78 130.645 119.438 130.645C118.095 130.645 116.897 130.336 116.114 129.852V130.883C116.114 131.031 116.333 131.29 116.84 131.544C117.498 131.873 118.43 132.07 119.438 132.07C120.446 132.07 121.378 131.873 122.035 131.544C122.543 131.29 122.762 131.031 122.762 130.883V129.852ZM115.164 130.883V126.134C115.164 124.954 117.078 123.997 119.438 123.997C121.798 123.997 123.711 124.954 123.711 126.134V130.883C123.711 132.063 121.798 133.019 119.438 133.019C117.078 133.019 115.164 132.063 115.164 130.883ZM119.438 127.321C120.446 127.321 121.378 127.124 122.035 126.796C122.543 126.542 122.762 126.283 122.762 126.134C122.762 125.985 122.543 125.727 122.035 125.473C121.378 125.144 120.446 124.947 119.438 124.947C118.43 124.947 117.498 125.144 116.84 125.473C116.333 125.727 116.114 125.985 116.114 126.134C116.114 126.283 116.333 126.542 116.84 126.796C117.498 127.124 118.43 127.321 119.438 127.321Z" fill="#666666"/>
</g>
<g clip-path="url(#clip4_307_4289)">
<path d="M90.2315 122.715L90.063 122.084C90.6974 121.913 91.2788 121.586 91.7537 121.132C92.2286 120.678 92.5818 120.112 92.7807 119.486C92.9797 118.86 93.0181 118.194 92.8924 117.549C92.7666 116.905 92.4809 116.302 92.0613 115.796L92.5633 115.378C93.0532 115.968 93.387 116.672 93.5338 117.424C93.6807 118.176 93.6359 118.954 93.4037 119.684C93.1715 120.415 92.7592 121.075 92.2049 121.605C91.6505 122.135 90.9719 122.516 90.2315 122.715V122.715Z" fill="#666666"/>
<path d="M87.0889 122.543H86.436V121.296L86.6985 121.244C87.1745 121.148 87.7419 120.787 87.7419 119.605V119.154L86.436 118.501V117.771L87.7419 117.118V116.993C87.7419 115.209 89.0232 114.055 91.0064 114.055H91.6593V115.302L91.3969 115.354C90.9209 115.45 90.3535 115.812 90.3535 116.993V117.118L91.6593 117.771V118.501L90.3535 119.154V119.605C90.3535 121.39 89.0722 122.543 87.0889 122.543ZM87.0889 121.89C88.7 121.89 89.7006 121.015 89.7006 119.605V118.75L90.9294 118.136L89.7006 117.521V116.993C89.7006 115.499 90.4792 114.972 91.0064 114.786V114.708C89.3954 114.708 88.3948 115.584 88.3948 116.993V117.521L87.166 118.136L88.3948 118.75V119.605C88.3948 121.099 87.6162 121.626 87.0889 121.812V121.89Z" fill="#666666"/>
<path d="M85.532 121.22C85.0421 120.63 84.7083 119.927 84.5615 119.174C84.4147 118.422 84.4596 117.644 84.6919 116.914C84.9243 116.183 85.3367 115.522 85.8913 114.993C86.4458 114.463 87.1246 114.082 87.8652 113.883L88.0337 114.514C87.399 114.684 86.8173 115.011 86.3421 115.465C85.8669 115.919 85.5135 116.485 85.3144 117.112C85.1153 117.738 85.0768 118.404 85.2026 119.049C85.3284 119.694 85.6143 120.297 86.0341 120.803L85.532 121.22Z" fill="#666666"/>
</g>
<g clip-path="url(#clip5_307_4289)">
<path d="M42.9401 120.341V116.732M42.9401 120.341L46.549 122.446M42.9401 120.341L45.0453 119.439M42.9401 116.732L46.549 114.627M42.9401 116.732L46.549 118.537M46.549 114.627L50.1578 116.732M46.549 114.627V116.732M50.1578 116.732V120.341M50.1578 116.732L46.549 118.537M50.1578 120.341L46.549 122.446M50.1578 120.341L48.0526 119.439M46.549 122.446V118.537M46.549 116.732L45.0453 117.635V119.439M46.549 116.732L48.0526 117.635V119.439M45.0453 119.439L46.549 120.341L48.0526 119.439" stroke="#666666" stroke-width="0.474846"/>
</g>
<path d="M118.963 111.651C118.828 111.651 118.716 111.606 118.625 111.515C118.534 111.424 118.488 111.311 118.488 111.177V108.328L115.734 104.814C115.615 104.655 115.598 104.489 115.681 104.315C115.764 104.141 115.908 104.054 116.114 104.054H122.762C122.967 104.054 123.112 104.141 123.195 104.315C123.278 104.489 123.26 104.655 123.142 104.814L120.387 108.328V111.177C120.387 111.311 120.342 111.424 120.251 111.515C120.16 111.606 120.047 111.651 119.913 111.651H118.963ZM119.438 107.995L121.788 105.004H117.087L119.438 107.995Z" fill="#666666"/>
<path d="M113.74 106.665C113.871 106.665 113.977 106.559 113.977 106.428C113.977 106.297 113.871 106.191 113.74 106.191V106.665ZM89.9974 106.428V106.191C89.8663 106.191 89.76 106.297 89.76 106.428H89.9974ZM89.8295 110.869C89.9222 110.962 90.0726 110.962 90.1653 110.869L91.6762 109.359C91.769 109.266 91.769 109.115 91.6762 109.023C91.5835 108.93 91.4332 108.93 91.3405 109.023L89.9974 110.366L88.6543 109.023C88.5616 108.93 88.4113 108.93 88.3186 109.023C88.2259 109.115 88.2259 109.266 88.3186 109.359L89.8295 110.869ZM113.74 106.191H89.9974V106.665H113.74V106.191ZM89.76 106.428V110.702H90.2348V106.428H89.76Z" fill="#666666"/>
<path d="M90.2348 128.746C90.2348 128.615 90.1285 128.508 89.9974 128.508C89.8663 128.508 89.76 128.615 89.76 128.746L90.2348 128.746ZM89.9974 131.595L89.76 131.595C89.76 131.726 89.8663 131.832 89.9974 131.832L89.9974 131.595ZM112.008 131.763C112.101 131.67 112.101 131.52 112.008 131.427L110.497 129.916C110.405 129.823 110.254 129.823 110.161 129.916C110.069 130.009 110.069 130.159 110.161 130.252L111.505 131.595L110.161 132.938C110.069 133.031 110.069 133.181 110.161 133.274C110.254 133.367 110.405 133.367 110.497 133.274L112.008 131.763ZM89.76 128.746L89.76 131.595L90.2348 131.595L90.2348 128.746L89.76 128.746ZM89.9974 131.832L111.84 131.832L111.84 131.358L89.9974 131.358L89.9974 131.832Z" fill="#666666"/>
<path d="M123.237 72.7141H115.639V71.7644H123.237M123.237 77.4625H115.639V74.6135H123.237M123.237 70.8147H115.639C115.112 70.8147 114.689 71.2373 114.689 71.7644V77.4625C114.689 77.7144 114.789 77.956 114.968 78.1341C115.146 78.3122 115.387 78.4122 115.639 78.4122H123.237C123.488 78.4122 123.73 78.3122 123.908 78.1341C124.086 77.956 124.186 77.7144 124.186 77.4625V71.7644C124.186 71.5125 124.086 71.271 123.908 71.0929C123.73 70.9148 123.488 70.8147 123.237 70.8147V70.8147Z" fill="#666666"/>
</g>
</g>
<g filter="url(#filter2_d_307_4289)">
<g clip-path="url(#clip6_307_4289)">
<rect x="92.8928" y="89.1072" width="142" height="111.935" rx="6.78316" fill="#E5E5E5"/>
<g filter="url(#filter3_d_307_4289)">
<rect x="92.8928" y="88.9685" width="142" height="15.6013" fill="#3D3F41"/>
</g>
<circle cx="102.526" cy="96.845" r="2.72224" fill="#E86C63"/>
<circle cx="110.693" cy="96.845" r="2.72224" fill="#F2BE59"/>
<circle cx="118.859" cy="96.845" r="2.72224" fill="#6DC95D"/>
<g clip-path="url(#clip7_307_4289)">
<rect width="32.22" height="52.9086" transform="translate(106.12 125.736)" fill="white"/>
<rect x="106.12" y="125.736" width="32.22" height="52.9086" fill="#EFF0F4"/>
<rect x="112.225" y="129.128" width="20.3495" height="2.71326" rx="1.35663" fill="white"/>
<rect x="108.494" y="139.981" width="27.4718" height="4.40905" rx="1.35663" fill="white"/>
<rect x="108.494" y="149.138" width="27.4718" height="4.40905" rx="1.35663" fill="white"/>
<rect x="108.494" y="155.582" width="6.10484" height="1.35663" rx="0.678316" fill="white"/>
<rect x="108.494" y="145.068" width="6.10484" height="1.35663" rx="0.678316" fill="white"/>
<rect x="128.165" y="155.582" width="7.80063" height="4.40905" rx="1.35663" fill="white"/>
</g>
<g clip-path="url(#clip8_307_4289)">
<rect width="32.22" height="52.9086" transform="translate(149.193 109.796)" fill="white"/>
<rect x="149.193" y="109.796" width="32.22" height="9.49642" fill="#EFF0F4"/>
<rect x="151.567" y="121.666" width="27.4718" height="17.9754" rx="2.71326" fill="#EFF0F4"/>
<rect x="155.298" y="113.188" width="20.3495" height="2.71326" rx="1.35663" fill="white"/>
<rect x="158.689" y="142.016" width="11.1922" height="2.3741" rx="1.18705" fill="#EFF0F4"/>
<rect x="158.689" y="145.747" width="20.3495" height="2.3741" rx="1.18705" fill="#EFF0F4"/>
<circle cx="154.62" cy="145.068" r="3.05242" fill="#EFF0F4"/>
<rect x="158.689" y="150.495" width="11.1922" height="2.3741" rx="1.18705" fill="#EFF0F4"/>
<rect x="158.689" y="154.226" width="20.3495" height="2.3741" rx="1.18705" fill="#EFF0F4"/>
<circle cx="154.62" cy="153.547" r="3.05242" fill="#EFF0F4"/>
<rect x="158.689" y="158.974" width="11.1922" height="2.3741" rx="1.18705" fill="#EFF0F4"/>
<circle cx="154.62" cy="162.026" r="3.05242" fill="#EFF0F4"/>
</g>
<path d="M137.436 152.53C137.436 153.029 137.84 153.434 138.34 153.434C138.839 153.434 139.244 153.029 139.244 152.53C139.244 152.03 138.839 151.625 138.34 151.625C137.84 151.625 137.436 152.03 137.436 152.53ZM149.476 137.224C149.545 137.162 149.551 137.055 149.489 136.985L148.471 135.847C148.409 135.778 148.302 135.772 148.232 135.834C148.162 135.897 148.156 136.004 148.219 136.074L149.123 137.085L148.112 137.989C148.042 138.052 148.036 138.159 148.099 138.229C148.161 138.298 148.268 138.304 148.338 138.242L149.476 137.224ZM138.308 152.696C139.117 152.852 140.2 152.519 141.173 151.39C142.146 150.261 143.016 148.332 143.426 145.26L143.09 145.215C142.685 148.248 141.831 150.107 140.916 151.168C140.001 152.23 139.033 152.49 138.372 152.363L138.308 152.696ZM143.426 145.26C143.528 144.495 143.604 143.788 143.672 143.139C143.74 142.489 143.798 141.899 143.865 141.364C143.998 140.288 144.161 139.456 144.478 138.828C144.788 138.21 145.249 137.785 146.002 137.529C146.766 137.269 147.833 137.183 149.353 137.267L149.372 136.929C147.839 136.843 146.719 136.927 145.893 137.208C145.056 137.492 144.525 137.978 144.175 138.675C143.83 139.361 143.662 140.245 143.528 141.322C143.461 141.862 143.402 142.457 143.335 143.104C143.267 143.752 143.191 144.455 143.09 145.215L143.426 145.26Z" fill="#4998F7"/>
<path d="M137.436 152.562C137.436 152.063 137.84 151.658 138.34 151.658C138.839 151.658 139.244 152.063 139.244 152.562C139.244 153.062 138.839 153.467 138.34 153.467C137.84 153.467 137.436 153.062 137.436 152.562ZM143.258 159.854L143.427 159.85L143.427 159.85L143.258 159.854ZM163.558 189.887C163.624 189.953 163.624 190.06 163.558 190.127L162.478 191.206C162.412 191.272 162.305 191.272 162.239 191.206C162.172 191.139 162.172 191.032 162.239 190.966L163.198 190.007L162.239 189.047C162.172 188.981 162.172 188.874 162.239 188.807C162.305 188.741 162.412 188.741 162.478 188.807L163.558 189.887ZM138.308 152.396C139.924 152.085 143.278 153.638 143.427 159.85L143.088 159.858C142.942 153.756 139.695 152.474 138.372 152.729L138.308 152.396ZM143.427 159.85C143.766 173.973 147.11 181.459 151.177 185.417C155.241 189.372 160.061 189.837 163.438 189.837L163.438 190.176C160.031 190.176 155.1 189.708 150.94 185.66C146.782 181.613 143.428 174.022 143.088 159.858L143.427 159.85Z" fill="#4998F7"/>
<g clip-path="url(#clip9_307_4289)">
<rect width="32.22" height="52.9086" transform="translate(164.116 166.435)" fill="white"/>
<rect x="164.116" y="166.435" width="32.22" height="9.49642" fill="#EFF0F4"/>
<rect x="170.221" y="169.827" width="20.3495" height="2.71326" rx="1.35663" fill="white"/>
<rect x="166.49" y="178.645" width="15.1095" height="2.3741" rx="1.18705" fill="#EFF0F4"/>
<rect x="166.49" y="182.376" width="27.4718" height="4.40905" rx="1.35663" fill="#EFF0F4"/>
<rect x="166.49" y="190.176" width="15.1095" height="2.3741" rx="1.18705" fill="#EFF0F4"/>
<rect x="166.49" y="193.907" width="27.4718" height="4.40905" rx="1.35663" fill="#EFF0F4"/>
</g>
<g clip-path="url(#clip10_307_4289)">
<rect width="32.22" height="52.9086" transform="translate(192.266 109.796)" fill="white"/>
<rect x="192.266" y="109.796" width="32.22" height="12.2097" fill="#EFF0F4"/>
<rect x="201.763" y="112.848" width="11.1922" height="2.3741" rx="1.18705" fill="white"/>
<rect x="201.763" y="116.579" width="20.3495" height="2.3741" rx="1.18705" fill="white"/>
<circle cx="197.693" cy="115.901" r="3.05242" fill="white"/>
<rect x="194.64" y="124.38" width="15.1095" height="2.3741" rx="1.18705" fill="#EFF0F4"/>
<rect x="194.64" y="128.11" width="27.4718" height="2.3741" rx="1.18705" fill="#EFF0F4"/>
<rect x="194.64" y="131.841" width="27.4718" height="2.3741" rx="1.18705" fill="#EFF0F4"/>
<rect x="194.64" y="135.572" width="27.4718" height="2.3741" rx="1.18705" fill="#EFF0F4"/>
<line x1="192.266" y1="141.168" x2="224.486" y2="141.168" stroke="#EFF0F4" stroke-width="0.339158"/>
<rect x="194.64" y="143.712" width="15.1095" height="2.3741" rx="1.18705" fill="#EFF0F4"/>
<rect x="194.64" y="147.442" width="27.4718" height="2.3741" rx="1.18705" fill="#EFF0F4"/>
<rect x="194.64" y="151.173" width="27.4718" height="2.3741" rx="1.18705" fill="#EFF0F4"/>
<rect x="194.64" y="154.904" width="27.4718" height="2.3741" rx="1.18705" fill="#EFF0F4"/>
<line x1="192.266" y1="160.5" x2="224.486" y2="160.5" stroke="#EFF0F4" stroke-width="0.339158"/>
</g>
<path d="M180.509 137.946C180.509 138.445 180.913 138.85 181.413 138.85C181.912 138.85 182.317 138.445 182.317 137.946C182.317 137.446 181.912 137.041 181.413 137.041C180.913 137.041 180.509 137.446 180.509 137.946ZM192.386 138.066C192.452 137.999 192.452 137.892 192.386 137.826L191.307 136.747C191.241 136.68 191.133 136.68 191.067 136.747C191.001 136.813 191.001 136.92 191.067 136.987L192.026 137.946L191.067 138.905C191.001 138.971 191.001 139.079 191.067 139.145C191.133 139.211 191.241 139.211 191.307 139.145L192.386 138.066ZM181.413 138.115H192.266V137.776H181.413V138.115Z" fill="#4998F7"/>
</g>
</g>
<defs>
<filter id="filter0_d_307_4289" x="3.10062" y="38.0503" width="146.727" height="116.368" filterUnits="userSpaceOnUse" color-interpolation-filters="sRGB">
<feFlood flood-opacity="0" result="BackgroundImageFix"/>
<feColorMatrix in="SourceAlpha" type="matrix" values="0 0 0 0 0 0 0 0 0 0 0 0 0 0 0 0 0 0 127 0" result="hardAlpha"/>
<feOffset dy="0.949692"/>
<feGaussianBlur stdDeviation="0.949692"/>
<feComposite in2="hardAlpha" operator="out"/>
<feColorMatrix type="matrix" values="0 0 0 0 0 0 0 0 0 0 0 0 0 0 0 0 0 0 0.12 0"/>
<feBlend mode="normal" in2="BackgroundImageFix" result="effect1_dropShadow_307_4289"/>
<feBlend mode="normal" in="SourceGraphic" in2="effect1_dropShadow_307_4289" result="shape"/>
</filter>
<filter id="filter1_d_307_4289" x="-0.457894" y="35.1083" width="153.916" height="26.6072" filterUnits="userSpaceOnUse" color-interpolation-filters="sRGB">
<feFlood flood-opacity="0" result="BackgroundImageFix"/>
<feColorMatrix in="SourceAlpha" type="matrix" values="0 0 0 0 0 0 0 0 0 0 0 0 0 0 0 0 0 0 127 0" result="hardAlpha"/>
<feOffset dy="1.70559"/>
<feGaussianBlur stdDeviation="2.72895"/>
<feComposite in2="hardAlpha" operator="out"/>
<feColorMatrix type="matrix" values="0 0 0 0 0 0 0 0 0 0 0 0 0 0 0 0 0 0 0.08 0"/>
<feBlend mode="normal" in2="BackgroundImageFix" result="effect1_dropShadow_307_4289"/>
<feBlend mode="normal" in="SourceGraphic" in2="effect1_dropShadow_307_4289" result="shape"/>
</filter>
<filter id="filter2_d_307_4289" x="91.0044" y="88.1629" width="145.884" height="115.699" filterUnits="userSpaceOnUse" color-interpolation-filters="sRGB">
<feFlood flood-opacity="0" result="BackgroundImageFix"/>
<feColorMatrix in="SourceAlpha" type="matrix" values="0 0 0 0 0 0 0 0 0 0 0 0 0 0 0 0 0 0 127 0" result="hardAlpha"/>
<feOffset dy="0.944234"/>
<feGaussianBlur stdDeviation="0.944234"/>
<feComposite in2="hardAlpha" operator="out"/>
<feColorMatrix type="matrix" values="0 0 0 0 0 0 0 0 0 0 0 0 0 0 0 0 0 0 0.12 0"/>
<feBlend mode="normal" in2="BackgroundImageFix" result="effect1_dropShadow_307_4289"/>
<feBlend mode="normal" in="SourceGraphic" in2="effect1_dropShadow_307_4289" result="shape"/>
</filter>
<filter id="filter3_d_307_4289" x="87.4663" y="85.2378" width="152.853" height="26.4544" filterUnits="userSpaceOnUse" color-interpolation-filters="sRGB">
<feFlood flood-opacity="0" result="BackgroundImageFix"/>
<feColorMatrix in="SourceAlpha" type="matrix" values="0 0 0 0 0 0 0 0 0 0 0 0 0 0 0 0 0 0 127 0" result="hardAlpha"/>
<feOffset dy="1.69579"/>
<feGaussianBlur stdDeviation="2.71326"/>
<feComposite in2="hardAlpha" operator="out"/>
<feColorMatrix type="matrix" values="0 0 0 0 0 0 0 0 0 0 0 0 0 0 0 0 0 0 0.08 0"/>
<feBlend mode="normal" in2="BackgroundImageFix" result="effect1_dropShadow_307_4289"/>
<feBlend mode="normal" in="SourceGraphic" in2="effect1_dropShadow_307_4289" result="shape"/>
</filter>
<clipPath id="clip0_307_4289">
<rect x="5" y="39" width="142.929" height="112.569" rx="6.82237" fill="white"/>
</clipPath>
<clipPath id="clip1_307_4289">
<rect width="9.49692" height="9.49692" fill="white" transform="translate(42.9877 70.8147)"/>
</clipPath>
<clipPath id="clip2_307_4289">
<rect width="8.54722" height="8.54722" fill="white" transform="translate(60.5569 113.551)"/>
</clipPath>
<clipPath id="clip3_307_4289">
<rect width="11.3963" height="11.3963" fill="white" transform="translate(113.74 122.573)"/>
</clipPath>
<clipPath id="clip4_307_4289">
<rect width="10.4466" height="10.4466" fill="white" transform="translate(83.8244 113.076)"/>
</clipPath>
<clipPath id="clip5_307_4289">
<rect width="9.02207" height="9.02207" fill="white" transform="translate(42.038 114.026)"/>
</clipPath>
<clipPath id="clip6_307_4289">
<rect x="92.8928" y="89.1072" width="142.107" height="111.922" rx="6.78316" fill="white"/>
</clipPath>
<clipPath id="clip7_307_4289">
<rect width="32.22" height="52.9086" fill="white" transform="translate(106.12 125.736)"/>
</clipPath>
<clipPath id="clip8_307_4289">
<rect width="32.22" height="52.9086" fill="white" transform="translate(149.193 109.796)"/>
</clipPath>
<clipPath id="clip9_307_4289">
<rect width="32.22" height="52.9086" fill="white" transform="translate(164.116 166.435)"/>
</clipPath>
<clipPath id="clip10_307_4289">
<rect width="32.22" height="52.9086" fill="white" transform="translate(192.266 109.796)"/>
</clipPath>
</defs>
</svg>
