<svg fill="none" height="240" viewBox="0 0 240 240" width="240" xmlns="http://www.w3.org/2000/svg" xmlns:xlink="http://www.w3.org/1999/xlink"><clipPath id="a"><rect height="157.518" rx="9.54654" width="200" x="20" y="41"/></clipPath><g clip-path="url(#a)"><rect fill="#fff" height="157.518" rx="9.54654" width="200" x="20" y="41"/><path d="m20 40.8047h200v21.957h-200z" fill="#3d3f41"/><circle cx="33.5574" cy="51.8901" fill="#e86c63" r="3.83125"/><circle cx="45.0512" cy="51.8901" fill="#f2be59" r="3.83125"/><circle cx="56.5449" cy="51.8901" fill="#6dc95d" r="3.83125"/><path d="m20 62.957h200v16.7064h-200z" fill="#efefef"/><path d="m20 79.9022h200" stroke="#dfdedf" stroke-width=".477327"/><path d="m20 93.2672h200" stroke="#dfdedf" stroke-width=".477327"/><path d="m65.1072 80.1409v118.3771" stroke="#dfdedf" stroke-width=".477327"/><path d="m86.1099 80.1409v118.3771" stroke="#dfdedf" stroke-width=".477327"/><path d="m109.976 80.1409v118.3771" stroke="#dfdedf" stroke-width=".477327"/><path d="m130.978 80.1409v118.3771" stroke="#dfdedf" stroke-width=".477327"/><g fill="#d9d9d9"><rect height="4.25262" rx="2.12631" width="21.0024" x="25.2508" y="69.5532"/><rect height="4.25262" rx="2.12631" width="15.7954" x="25.4677" y="84.7412"/><rect height="4.25262" rx="2.12631" width="13.3654" x="68.6013" y="84.7412"/><rect height="4.25262" rx="2.12631" width="14.5804" x="89.8644" y="84.7412"/><rect height="4.25262" rx="2.12631" width="13.9729" x="112.343" y="84.7412"/><rect height="4.25262" rx="2.12631" width="28.5533" x="135.428" y="84.7412"/><rect height="5.72792" rx="2.86396" width="29.1169" x="25.2508" y="98.7566"/><rect height="5.72792" rx="2.86396" width="22.4344" x="25.2508" y="110.212"/><rect height="5.72792" rx="2.86396" width="35.7995" x="25.2508" y="121.668"/><rect height="5.72792" rx="2.86396" width="29.1169" x="25.2508" y="133.124"/><rect height="5.72792" rx="2.86396" width="33.4129" x="25.2508" y="144.58"/><rect height="4.25262" rx="2.12631" width="21.0024" x="91.1216" y="69.5532"/><rect height="4.25262" rx="2.12631" width="21.0024" x="58.186" y="69.5532"/><rect height="4.25262" rx="2.12631" width="21.0024" x="124.057" y="69.5532"/></g><g fill="#4998f7"><path d="m136.468 99.7112h12.4105v3.81862h-12.4105z"/><path d="m140.896 110.864h17.0105v4.25262h-17.0105z"/><path d="m136.643 110.864h3.03758v4.25262h-3.03758z" fill-opacity=".5"/><path d="m136.643 122.407h7.2902v4.25262h-7.2902z" fill-opacity=".5"/><path d="m136.643 133.95h9.72027v4.25262h-9.72027z" fill-opacity=".5"/><path d="m136.643 145.493h12.7578v4.25262h-12.7578z" fill-opacity=".5"/><path d="m145.148 122.407h20.048v4.25262h-20.048z"/><path d="m147.578 133.95h17.618v4.25262h-17.618z"/><path d="m150.616 145.493h19.4405v4.25262h-19.4405z"/></g><path d="m170.36 80.1409v118.3771" stroke="#80aee7" stroke-width=".607517"/><path d="m152.742 80.1409v118.3771" stroke="#6dc95d" stroke-width=".607517"/></g></svg>