<svg width="712" height="512" viewBox="0 0 712 512" fill="none" xmlns="http://www.w3.org/2000/svg">
<style>.code { font-family: 'JetBrains Mono', Monaco, ui-monospace, monospace; font-size: 10px; white-space: pre; letter-spacing: 0; }</style>
<g clip-path="url(#outer)">
<rect width="712" height="512" rx="20" fill="#1D1E20"/>
<rect width="712" height="46" fill="#3D3F41"/>
<circle cx="28" cy="22" r="8" fill="#E86C63"/>
<circle cx="52" cy="22" r="8" fill="#F2BE59"/>
<circle cx="76" cy="22" r="8" fill="#6DC95D"/>
<text fill="#5D5D5D" xml:space="preserve" class="code"><tspan x="30" y="68">1&#10;</tspan><tspan x="30" y="86">2&#10;</tspan><tspan x="30" y="105.6">3&#10;</tspan><tspan x="30" y="123.6">4&#10;</tspan><tspan x="30" y="141.6">5&#10;</tspan><tspan x="30" y="159.6">6&#10;</tspan><tspan x="30" y="177.6">7&#10;</tspan><tspan x="30" y="195.6">8&#10;</tspan><tspan x="30" y="213.6">9&#10;</tspan><tspan x="24" y="231.6">10&#10;</tspan><tspan x="24" y="249.6">11&#10;</tspan><tspan x="24" y="267.6">12&#10;</tspan><tspan x="24" y="285.6">13&#10;</tspan><tspan x="24" y="303.6">14&#10;</tspan><tspan x="24" y="321.6">15&#10;</tspan><tspan x="24" y="339.6">16&#10;</tspan><tspan x="24" y="357">17&#10;</tspan><tspan x="24" y="375.6">18&#10;</tspan><tspan x="24" y="393">19&#10;</tspan><tspan x="24" y="411">20&#10;</tspan><tspan x="24" y="429">21&#10;</tspan><tspan x="24" y="447">22</tspan></text>
<text fill="#B392F0" xml:space="preserve" class="code"><tspan x="88" y="122.6">SinTatFan</tspan><tspan x="196.906" y="122.6">SoftwareDeveloper</tspan><tspan x="106.965" y="140">education</tspan><tspan x="184.914" y="140">Education</tspan><tspan x="88.9766" y="176.6">Bachelor</tspan><tspan x="88.9766" y="194.6">Master</tspan><tspan x="106.965" y="266.6">techStack</tspan><tspan x="184.914" y="266.6">Record</tspan><tspan x="226.887" y="266.6">SkillCategory</tspan><tspan x="316.828" y="266.6">Skill</tspan></text>
<text fill="#9ECBFF" xml:space="preserve" class="code"><tspan x="256" y="68">&#39;profile/career&#39;</tspan><tspan x="316.828" y="86">&#39;profile/education&#39;</tspan><tspan x="274.855" y="104.6">&#39;profile/techstack&#39;</tspan><tspan x="178.918" y="176.6">&#39;Science&#39;</tspan><tspan x="268.859" y="176.6">&#39;Computer Science&#39;</tspan><tspan x="166.926" y="194.6">&#39;Design&#39;</tspan><tspan x="250.871" y="194.6">&#39;Interaction Design&#39;</tspan><tspan x="124.953" y="302">&#39;HTML&#39;</tspan><tspan x="172.922" y="302">&#39;CSS&#39;</tspan><tspan x="214.895" y="302">&#39;JavaScript&#39;</tspan><tspan x="298.84" y="302">&#39;React&#39;</tspan><tspan x="352" y="302">&#39;Vue.js&#39;</tspan><tspan x="148.938" y="320">&#39;Node.js&#39;</tspan><tspan x="214.895" y="320">&#39;Express&#39;</tspan><tspan x="280.852" y="320">&#39;Nest.js&#39;</tspan><tspan x="346" y="320">&#39;PHP&#39;</tspan><tspan x="388.781" y="320">&#39;Laravel&#39;</tspan><tspan x="154.934" y="338.6">&#39;MongoDB&#39;</tspan><tspan x="220.891" y="338.6">&#39;MySQL&#39;</tspan><tspan x="124.953" y="356.6">&#39;Flutter&#39;</tspan><tspan x="136.945" y="374.6">&#39;AWS&#39;</tspan><tspan x="178.918" y="374.6">&#39;Azure&#39;</tspan><tspan x="232.883" y="374.6">&#39;CloudFlare&#39;</tspan></text>
<text fill="#E1E4E8" xml:space="preserve" class="code"><tspan x="88" y="68"> { SoftwareDeveloper } </tspan><tspan x="250.871" y="68"> </tspan><tspan x="352.805" y="68">;&#10;</tspan><tspan x="88.9766" y="86"> { Education, Bachelor, Master } </tspan><tspan x="310.832" y="86"> </tspan><tspan x="430.754" y="86">;&#10;</tspan><tspan x="88.9766" y="104.6"> { SkillCategory, Skill } </tspan><tspan x="268.859" y="104.6"> </tspan><tspan x="388.781" y="104.6">;&#10;</tspan><tspan x="82.9805" y="122.6"> </tspan><tspan x="142.941" y="122.6"> </tspan><tspan x="190.91" y="122.6"> </tspan><tspan x="298.84" y="122.6"> {&#10;</tspan><tspan x="53" y="140">  </tspan><tspan x="100.969" y="140"> </tspan><tspan x="160.93" y="140">()</tspan><tspan x="178.918" y="140"> </tspan><tspan x="238.879" y="140">[] {&#10;</tspan><tspan x="53" y="158.6">    </tspan><tspan x="112.961" y="158.6"> [&#10;</tspan><tspan x="53" y="176.6">      </tspan><tspan x="136.945" y="176.6">({ of: </tspan><tspan x="232.883" y="176.6">, in: </tspan><tspan x="376.789" y="176.6"> }),&#10;</tspan><tspan x="53" y="194.6">      </tspan><tspan x="124.953" y="194.6">({ of: </tspan><tspan x="214.895" y="194.6">, in: </tspan><tspan x="370.793" y="194.6"> }),&#10;</tspan><tspan x="53" y="212.6">    ];&#10;</tspan><tspan x="53" y="230.6">  }&#10;</tspan><tspan x="53" y="266.6">  </tspan><tspan x="100.969" y="266.6"> </tspan><tspan x="160.93" y="266.6">()</tspan><tspan x="178.918" y="266.6"> </tspan><tspan x="220.891" y="266.6">&#60;</tspan><tspan x="304.836" y="266.6">, </tspan><tspan x="346.809" y="266.6">[]&#62; {&#10;</tspan><tspan x="53" y="284.6">    </tspan><tspan x="112.961" y="284.6"> {&#10;</tspan><tspan x="53" y="302">      web: [</tspan><tspan x="160.93" y="302">, </tspan><tspan x="202.902" y="302">, </tspan><tspan x="286.848" y="302">, </tspan><tspan x="340.812" y="302">, </tspan><tspan x="400.773" y="302">],&#10;</tspan><tspan x="53" y="320">      backend: [</tspan><tspan x="202.902" y="320">, </tspan><tspan x="268.859" y="320">, </tspan><tspan x="334.816" y="320">, </tspan><tspan x="376.789" y="320">, </tspan><tspan x="442.746" y="320">],&#10;</tspan><tspan x="53" y="338.6">      database: [</tspan><tspan x="208.898" y="338.6">, </tspan><tspan x="262.863" y="338.6">],&#10;</tspan><tspan x="53" y="356.6">      app: [</tspan><tspan x="178.918" y="356.6">],&#10;</tspan><tspan x="53" y="374.6">      cloud: [</tspan><tspan x="166.926" y="374.6">, </tspan><tspan x="220.891" y="374.6">, </tspan><tspan x="304.836" y="374.6">],&#10;</tspan><tspan x="53" y="392.6">    };&#10;</tspan><tspan x="53" y="410.6">  }&#10;</tspan><tspan x="53" y="428.6">}&#10;</tspan></text>
<text fill="#F97583" xml:space="preserve" class="code"><tspan x="53" y="68">import</tspan><tspan x="226.887" y="68">from</tspan><tspan x="53" y="86">import</tspan><tspan x="286.848" y="86">from</tspan><tspan x="53" y="104.6">import</tspan><tspan x="244.875" y="104.6">from</tspan><tspan x="53" y="122.6">class</tspan><tspan x="148.938" y="122.6">extends</tspan><tspan x="64.9922" y="140">public</tspan><tspan x="172.922" y="140">:</tspan><tspan x="76.9844" y="158.6">return</tspan><tspan x="64.9922" y="266.6">public</tspan><tspan x="172.922" y="266.6">:</tspan><tspan x="76.9844" y="284.6">return</tspan></text>
</g>
<defs>
<clipPath id="outer">
<rect width="712" height="512" rx="20"/>
</clipPath>
</defs>
</svg>
