<svg fill="none" height="64" viewBox="0 0 64 64" width="64" xmlns="http://www.w3.org/2000/svg" xmlns:xlink="http://www.w3.org/1999/xlink"><linearGradient id="a"><stop offset="0" stop-color="#ffc345"/><stop offset="1" stop-color="#f29516"/></linearGradient><linearGradient id="b" gradientUnits="userSpaceOnUse" x1="51.0583" x2="56.3646" xlink:href="#a" y1="27.7402" y2="34.1277"/><linearGradient id="c" gradientUnits="userSpaceOnUse" x1="6.07022" x2="19.4103" y1="34.0442" y2="8.68755"><stop offset=".16" stop-color="#f29516"/><stop offset="1" stop-color="#ffc345"/></linearGradient><linearGradient id="d" gradientUnits="userSpaceOnUse" x1="22.4447" x2="26.2903" xlink:href="#a" y1="28.0791" y2="32.7113"/><linearGradient id="e" gradientUnits="userSpaceOnUse" x1="27.591" x2="5.87816" y1="55.5486" y2="31.3717"><stop offset=".35" stop-color="#f29516"/><stop offset="1" stop-color="#ffc345"/></linearGradient><linearGradient id="f" gradientUnits="userSpaceOnUse" x1="32.9002" x2="48.451" y1="49.1949" y2="33.4812"><stop offset=".45" stop-color="#ffc345"/><stop offset="1" stop-color="#f29516"/></linearGradient><linearGradient id="g" gradientUnits="userSpaceOnUse" x1="34.8426" x2="48.8354" y1="13.9825" y2="21.9992"><stop offset=".29" stop-color="#f29516"/><stop offset="1" stop-color="#ffc345"/></linearGradient><path d="m53.7442 35.0406c-.2715 0-.5472-.029-.8145-.0827-.2673-.0496-.5305-.1323-.7811-.2356-.2507-.1034-.4971-.2315-.7227-.3803-.2297-.1489-.4428-.3225-.6349-.5126-.1922-.1902-.3676-.401-.518-.6284-.1504-.2232-.2799-.463-.3843-.7152-.1044-.248-.1838-.5084-.2381-.773s-.0835-.5374-.0835-.8061.0292-.5415.0835-.8061.1337-.525.2381-.7772c.1044-.248.2339-.4878.3843-.711.1504-.2274.3258-.4382.518-.6283.1921-.1902.4052-.3638.6349-.5126.2256-.1489.472-.277.7227-.3804.2506-.1033.5138-.1818.7811-.2356.5389-.1075 1.0944-.1075 1.6333 0 .2673.0538.5263.1323.7811.2356.2506.1034.4929.2315.7185.3804.2297.1488.4428.3224.6349.5126.1963.1901.3676.4009.5222.6283.1503.2232.2798.463.3843.711.1044.2522.1837.5126.238.7772s.0794.5374.0794.8061c0 1.0872-.4428 2.1538-1.2239 2.9227-.1921.1901-.4052.3637-.6349.5126-.2256.1488-.4679.2769-.7185.3803-.2548.1033-.5138.186-.7811.2356-.2715.0537-.5472.0827-.8188.0827z" fill="url(#b)"/><path d="m8.43032 34.842h-1.25315c-2.3058 0-4.17717-1.8478-4.17717-4.1338 0-2.2861 1.87137-4.1339 4.17717-4.1339h1.25315c1.1153 0 2.01758-.8971 2.01758-1.9967v-14.4437c.0042-2.28192 1.8714-4.1339 4.1813-4.1339 2.31 0 4.1772 1.85198 4.1772 4.1339v14.4437c0 5.6593-4.6534 10.2644-10.3719 10.2644z" fill="url(#c)"/><path d="m24.6753 34.8421c-.2715 0-.5472-.0248-.8145-.0785-.2673-.0538-.5305-.1323-.7811-.2357-.2548-.1033-.4971-.2315-.7227-.3803-.2297-.1529-.4428-.3224-.6349-.5167-.1922-.1902-.3676-.401-.5222-.6242-.1503-.2274-.2757-.4672-.3801-.7152s-.188-.5085-.2381-.773c-.0543-.2687-.0835-.5374-.0835-.8103 0-.2728.0292-.5415.0835-.8061.0501-.2646.1337-.525.2381-.773s.2298-.4878.3801-.7152c.1546-.2232.33-.4382.5222-.6283.1921-.1902.4052-.3597.6349-.5126.2256-.1488.4679-.277.7227-.3803.2506-.1034.5138-.1819.7811-.2357.5388-.1075 1.0902-.1075 1.6291 0 .2673.0538.5305.1323.7853.2357.2506.1033.4929.2315.7185.3803.2297.1529.4427.3224.6349.5126.1921.1943.3676.4051.518.6283.1503.2274.2798.4672.3843.7152.1044.248.1879.5084.2381.773.0543.2646.0835.5374.0835.8061s-.0292.5416-.0835.8103c-.0502.2645-.1337.525-.2381.773-.1045.248-.234.4878-.3843.7152-.1504.2232-.3259.434-.518.6242-.1922.1943-.4052.3638-.6349.5167-.2256.1488-.4679.277-.7185.3803-.2548.1034-.518.1819-.7853.2357-.2674.0537-.543.0785-.8146.0785z" fill="url(#d)"/><path d="m28.7564 57.6362h-5.848c-6.8673 0-12.4563-6.2629-12.4563-13.9601v-5.6097c0-1.8437-1.06521-3.2203-2.02178-3.2203h-1.25315c-2.3058 0-4.17717-1.852-4.17717-4.1339s1.87137-4.1338 4.17717-4.1338h1.25315c5.71858 0 10.37608 5.1549 10.37608 11.488v5.6097c0 3.088 1.8797 5.6923 4.102 5.6923h5.848c2.3058 0 4.1772 1.852 4.1772 4.1339s-1.8714 4.1339-4.1772 4.1339z" fill="url(#e)"/><path d="m43.5311 58c-2.3058 0-4.1772-1.8519-4.1772-4.1338v-16.8745c0-1.1037-.9064-1.9967-2.0176-1.9967h-1.2531c-2.3058 0-4.1772-1.8519-4.1772-4.1338s1.8714-4.1339 4.1772-4.1339h1.2531c5.7186 0 10.3719 4.6051 10.3719 10.2644v16.8745c0 2.2819-1.8713 4.1338-4.1771 4.1338z" fill="url(#f)"/><path d="m37.3322 34.9908h-1.2532c-2.3058 0-4.1771-1.8519-4.1771-4.1338s1.8713-4.1339 4.1771-4.1339h1.2532c1.1153 0 2.0175-.8971 2.0175-2.0008v-6.3992c0-6.7961 5.5891-12.32725 12.4564-12.32725h5.0126c2.3058 0 4.1771 1.85197 4.1771 4.13385 0 2.2819-1.8713 4.1339-4.1771 4.1339h-5.0126c-2.2641 0-4.102 1.823-4.102 4.0595v6.3992c0 5.6593-4.6534 10.2685-10.3719 10.2685z" fill="url(#g)"/></svg>