<?xml version="1.0" standalone="no"?>
<!DOCTYPE svg PUBLIC "-//W3C//DTD SVG 20010904//EN"
 "http://www.w3.org/TR/2001/REC-SVG-20010904/DTD/svg10.dtd">
<svg version="1.0" xmlns="http://www.w3.org/2000/svg"
 width="700.000000pt" height="700.000000pt" viewBox="0 0 700.000000 700.000000"
 preserveAspectRatio="xMidYMid meet">
<metadata>
Created by potrace 1.14, written by Peter Selinger 2001-2017
</metadata>
<g transform="translate(0.000000,700.000000) scale(0.100000,-0.100000)"
fill="#000000" stroke="none">
<path d="M1550 6339 c-140 -16 -257 -87 -332 -203 -75 -117 -71 -61 -73 -1016
l-2 -855 -22 -44 c-51 -100 -100 -122 -277 -126 -147 -4 -194 -13 -276 -57
-83 -44 -150 -114 -194 -203 -33 -68 -38 -88 -42 -166 -7 -139 29 -239 120
-335 100 -105 190 -141 366 -143 141 -2 173 -12 225 -70 93 -103 98 -131 102
-644 2 -237 6 -443 9 -457 2 -14 7 -45 11 -70 27 -191 120 -434 233 -615 73
-117 213 -273 312 -348 30 -23 57 -45 60 -48 11 -12 122 -80 182 -110 144 -73
265 -107 448 -127 118 -13 789 -7 850 8 129 31 244 121 300 235 38 78 50 126
50 200 -1 181 -93 327 -259 408 l-86 42 -416 5 -415 5 -63 33 c-110 58 -192
154 -245 287 -53 130 -57 174 -60 644 -2 240 -6 443 -9 451 -3 8 -8 33 -11 55
-17 132 -99 346 -184 480 l-38 60 42 61 c81 114 167 323 190 462 9 58 12 1775
3 1834 -5 29 -22 80 -39 114 -86 175 -268 275 -460 253z"/>
<path d="M5617 6344 c-1 -1 -40 -4 -87 -8 -151 -11 -324 -62 -482 -141 -399
-199 -677 -590 -734 -1030 -4 -33 -8 -251 -9 -485 -2 -465 -3 -469 -63 -534
-49 -52 -95 -66 -218 -66 -138 0 -201 -12 -281 -50 -158 -78 -256 -238 -252
-411 4 -177 96 -322 254 -400 78 -37 142 -49 279 -49 123 0 169 -14 218 -66
65 -69 61 -9 63 -1089 l1 -980 23 -67 c40 -118 118 -207 233 -263 76 -37 116
-46 209 -47 207 -1 399 160 438 367 12 63 12 1986 0 2070 -15 102 -25 143 -56
230 -32 88 -81 185 -126 250 l-34 50 40 59 c84 124 156 316 175 471 5 38 10
254 10 480 0 261 5 428 12 460 24 107 110 225 207 282 97 57 137 62 489 63
178 0 347 5 376 10 261 50 426 320 348 571 -44 145 -144 246 -297 301 -54 19
-81 21 -396 22 -186 1 -339 1 -340 0z"/>
<path d="M2635 4088 c-264 -38 -439 -292 -379 -550 37 -158 154 -280 317 -330
130 -39 288 -11 398 72 186 140 237 405 115 599 -94 149 -277 234 -451 209z"/>
<path d="M5760 4054 c-82 -22 -138 -54 -195 -109 -86 -83 -130 -175 -139 -290
-7 -84 7 -155 45 -234 78 -158 226 -249 408 -249 256 0 450 192 456 453 1 43
-28 162 -48 198 -42 75 -125 160 -191 194 -96 50 -234 65 -336 37z"/>
</g>
</svg>
